<svg xmlns="http://www.w3.org/2000/svg" xmlns:svg="http://www.w3.org/2000/svg" id="svg179" fill="none" stroke="none" stroke-linecap="square" stroke-miterlimit="10" version="1.1" viewBox="0 0 960 540"><metadata id="metadata185"/><clipPath id="ge5cd28bdd1_0_631.0"><path id="path2" d="m0 0l960.0 0l0 540.0l-960.0 0l0 -540.0z" clip-rule="nonzero"/></clipPath><g id="g177" clip-path="url(#ge5cd28bdd1_0_631.0)"><path id="path5" fill="#fff" fill-rule="evenodd" d="m0 0l960.0 0l0 540.0l-960.0 0z"/><path id="path7" fill="#999" fill-rule="evenodd" d="m276.5466 48.40026l139.74805 0l0 66.20473l-139.74805 0z"/><path id="path9" fill-rule="evenodd" stroke="#434343" stroke-linecap="butt" stroke-linejoin="round" stroke-width="1" d="m276.5466 48.40026l139.74805 0l0 66.20473l-139.74805 0z"/><path id="path11" fill="#fff" fill-rule="nonzero" d="m306.5309 84.478874l0 6.34375l-3.703125 0l0 -18.0l7.015625 0q2.03125 0 3.5625 0.75q1.546875 0.734375 2.375 2.09375q0.828125 1.359375 0.828125 3.109375q0 2.640625 -1.8125 4.171875q-1.796875 1.53125 -5.0 1.53125l-3.265625 0zm0 -3.0l3.3125 0q1.484375 0 2.25 -0.6875q0.78125 -0.703125 0.78125 -1.984375q0 -1.328125 -0.78125 -2.140625q-0.78125 -0.828125 -2.15625 -0.84375l-3.40625 0l0 5.65625zm19.915253 -0.6875q-0.734375 -0.09375 -1.28125 -0.09375q-2.03125 0 -2.65625 1.375l0 8.75l-3.578125 0l0 -13.375l3.375 0l0.09375 1.59375q1.078125 -1.84375 2.984375 -1.84375q0.59375 0 1.109375 0.15625l-0.046875 3.4375zm0.7149048 3.21875q0 -2.0 0.765625 -3.546875q0.765625 -1.5625 2.203125 -2.40625q1.453125 -0.859375 3.359375 -0.859375q2.703125 0 4.40625 1.65625q1.71875 1.65625 1.921875 4.5l0.03125 0.921875q0 3.078125 -1.734375 4.9375q-1.71875 1.859375 -4.609375 1.859375q-2.890625 0 -4.625 -1.859375q-1.71875 -1.859375 -1.71875 -5.046875l0 -0.15625zm3.578125 0.265625q0 1.890625 0.71875 2.90625q0.71875 1.0 2.046875 1.0q1.296875 0 2.03125 -0.984375q0.734375 -1.0 0.734375 -3.1875q0 -1.875 -0.734375 -2.890625q-0.734375 -1.03125 -2.046875 -1.03125q-1.3125 0 -2.03125 1.03125q-0.71875 1.015625 -0.71875 3.15625zm10.743164 -0.25q0 -3.125 1.40625 -4.96875q1.40625 -1.859375 3.84375 -1.859375q1.953125 0 3.21875 1.453125l0 -6.828125l3.59375 0l0 19.0l-3.234375 0l-0.171875 -1.421875q-1.328125 1.671875 -3.4375 1.671875q-2.359375 0 -3.796875 -1.859375q-1.421875 -1.859375 -1.421875 -5.1875zm3.578125 0.265625q0 1.875 0.65625 2.890625q0.65625 1.0 1.90625 1.0q1.65625 0 2.328125 -1.40625l0 -5.28125q-0.65625 -1.390625 -2.3125 -1.390625q-2.578125 0 -2.578125 4.1875zm19.27179 5.171875q-1.328125 1.609375 -3.671875 1.609375q-2.140625 0 -3.28125 -1.234375q-1.125 -1.234375 -1.15625 -3.625l0 -8.765625l3.578125 0l0 8.640625q0 2.09375 1.90625 2.09375q1.8125 0 2.5 -1.265625l0 -9.46875l3.578125 0l0 13.375l-3.359375 0l-0.09375 -1.359375zm10.438507 -15.3125l0 3.296875l2.28125 0l0 2.609375l-2.28125 0l0 6.6875q0 0.734375 0.28125 1.0625q0.28125 0.3125 1.09375 0.3125q0.59375 0 1.046875 -0.078125l0 2.703125q-1.046875 0.328125 -2.171875 0.328125q-3.75 0 -3.828125 -3.796875l0 -7.21875l-1.953125 0l0 -2.609375l1.953125 0l0 -3.296875l3.578125 0zm3.3432922 9.859375q0 -2.0 0.765625 -3.546875q0.765625 -1.5625 2.203125 -2.40625q1.453125 -0.859375 3.359375 -0.859375q2.703125 0 4.40625 1.65625q1.71875 1.65625 1.921875 4.5l0.03125 0.921875q0 3.078125 -1.734375 4.9375q-1.71875 1.859375 -4.609375 1.859375q-2.890625 0 -4.625 -1.859375q-1.71875 -1.859375 -1.71875 -5.046875l0 -0.15625zm3.578125 0.265625q0 1.890625 0.71875 2.90625q0.71875 1.0 2.046875 1.0q1.296875 0 2.03125 -0.984375q0.734375 -1.0 0.734375 -3.1875q0 -1.875 -0.734375 -2.890625q-0.734375 -1.03125 -2.046875 -1.03125q-1.3125 0 -2.03125 1.03125q-0.71875 1.015625 -0.71875 3.15625z"/><path id="path13" fill="#d9d9d9" fill-rule="evenodd" d="m276.5466 123.79897l139.74805 0l0 66.204735l-139.74805 0z"/><path id="path15" fill-rule="evenodd" stroke="#fff" stroke-linecap="butt" stroke-linejoin="round" stroke-width="1" d="m276.5466 123.79897l139.74805 0l0 66.204735l-139.74805 0z"/><path id="path17" fill="#000" fill-rule="nonzero" d="m314.97595 148.19383l1.109375 0.75q-0.96875 1.3125 -1.0 2.84375l0 1.421875l-1.921875 0l0 -1.203125q0 -1.0625 0.5 -2.109375q0.515625 -1.046875 1.3125 -1.703125zm3.28125 0l1.109375 0.75q-0.96875 1.3125 -1.0 2.84375l0 1.421875l-1.921875 0l0 -1.203125q0 -1.0625 0.5 -2.109375q0.515625 -1.046875 1.3125 -1.703125zm5.7117004 1.03125l4.953125 12.359375l4.953125 -12.359375l2.59375 0l0 15.15625l-2.0 0l0 -5.90625l0.1875 -6.375l-4.96875 12.28125l-1.53125 0l-4.96875 -12.25l0.203125 6.34375l0 5.90625l-2.0 0l0 -15.15625l2.578125 0zm22.698578 15.15625q-0.171875 -0.328125 -0.28125 -1.1875q-1.34375 1.390625 -3.203125 1.390625q-1.671875 0 -2.734375 -0.9375q-1.0625 -0.9375 -1.0625 -2.390625q0 -1.765625 1.328125 -2.734375q1.34375 -0.96875 3.765625 -0.96875l1.875 0l0 -0.890625q0 -1.015625 -0.609375 -1.609375q-0.59375 -0.59375 -1.765625 -0.59375q-1.03125 0 -1.734375 0.515625q-0.703125 0.515625 -0.703125 1.265625l-1.9375 0q0 -0.84375 0.59375 -1.625q0.609375 -0.796875 1.625 -1.25q1.03125 -0.453125 2.265625 -0.453125q1.953125 0 3.046875 0.96875q1.109375 0.96875 1.15625 2.671875l0 5.1875q0 1.5625 0.390625 2.46875l0 0.171875l-2.015625 0zm-3.203125 -1.46875q0.90625 0 1.71875 -0.46875q0.8125 -0.46875 1.171875 -1.21875l0 -2.3125l-1.5 0q-3.546875 0 -3.546875 2.078125q0 0.90625 0.59375 1.421875q0.609375 0.5 1.5625 0.5zm13.288849 -8.078125q-0.4375 -0.0625 -0.953125 -0.0625q-1.890625 0 -2.5625 1.609375l0 8.0l-1.9375 0l0 -11.265625l1.875 0l0.03125 1.296875q0.953125 -1.5 2.6875 -1.5q0.5625 0 0.859375 0.140625l0 1.78125zm3.857605 9.546875l-1.921875 0l0 -11.265625l1.921875 0l0 11.265625zm-2.078125 -14.25q0 -0.46875 0.28125 -0.796875q0.296875 -0.328125 0.859375 -0.328125q0.5625 0 0.84375 0.328125q0.296875 0.328125 0.296875 0.796875q0 0.46875 -0.296875 0.78125q-0.28125 0.3125 -0.84375 0.3125q-0.5625 0 -0.859375 -0.3125q-0.28125 -0.3125 -0.28125 -0.78125zm12.128967 14.25q-0.171875 -0.328125 -0.28125 -1.1875q-1.34375 1.390625 -3.203125 1.390625q-1.671875 0 -2.734375 -0.9375q-1.0625 -0.9375 -1.0625 -2.390625q0 -1.765625 1.328125 -2.734375q1.34375 -0.96875 3.765625 -0.96875l1.875 0l0 -0.890625q0 -1.015625 -0.609375 -1.609375q-0.59375 -0.59375 -1.765625 -0.59375q-1.03125 0 -1.734375 0.515625q-0.703125 0.515625 -0.703125 1.265625l-1.9375 0q0 -0.84375 0.59375 -1.625q0.609375 -0.796875 1.625 -1.25q1.03125 -0.453125 2.265625 -0.453125q1.953125 0 3.046875 0.96875q1.109375 0.96875 1.15625 2.671875l0 5.1875q0 1.5625 0.390625 2.46875l0 0.171875l-2.015625 0zm-3.203125 -1.46875q0.90625 0 1.71875 -0.46875q0.8125 -0.46875 1.171875 -1.21875l0 -2.3125l-1.5 0q-3.546875 0 -3.546875 2.078125q0 0.90625 0.59375 1.421875q0.609375 0.5 1.5625 0.5zm7.403412 -9.421875l-1.09375 -0.75q0.96875 -1.359375 1.0 -2.859375l0 -1.5l1.90625 0l0 1.359375q-0.015625 1.046875 -0.515625 2.078125q-0.5 1.03125 -1.296875 1.671875zm3.203125 0l-1.09375 -0.75q0.96875 -1.359375 1.0 -2.859375l0 -1.5l1.90625 0l0 1.359375q-0.015625 1.046875 -0.515625 2.078125q-0.5 1.03125 -1.296875 1.671875z"/><path id="path19" fill="#d9d9d9" fill-rule="evenodd" d="m276.5466 199.1977l139.74805 0l0 66.20471l-139.74805 0z"/><path id="path21" fill-rule="evenodd" stroke="#fff" stroke-linecap="butt" stroke-linejoin="round" stroke-width="1" d="m276.5466 199.1977l139.74805 0l0 66.20471l-139.74805 0z"/><path id="path23" fill="#000" fill-rule="nonzero" d="m307.66003 223.59254l1.109375 0.75q-0.96875 1.3125 -1.0 2.84375l0 1.421875l-1.921875 0l0 -1.203125q0 -1.0625 0.5 -2.109375q0.515625 -1.046875 1.3125 -1.703125zm3.28125 0l1.109375 0.75q-0.96875 1.3125 -1.0 2.84375l0 1.421875l-1.921875 0l0 -1.203125q0 -1.0625 0.5 -2.109375q0.515625 -1.046875 1.3125 -1.703125zm9.477325 1.03125l2.015625 0l0 10.734375q0 2.171875 -1.3125 3.40625q-1.296875 1.21875 -3.484375 1.21875q-2.25 0 -3.515625 -1.15625q-1.265625 -1.15625 -1.265625 -3.234375l2.0 0q0 1.296875 0.71875 2.03125q0.71875 0.734375 2.0625 0.734375q1.25 0 2.015625 -0.78125q0.765625 -0.78125 0.765625 -2.1875l0 -10.765625zm12.080475 14.046875q-1.125 1.3125 -3.3125 1.3125q-1.796875 0 -2.75 -1.046875q-0.9375 -1.046875 -0.9375 -3.09375l0 -7.328125l1.921875 0l0 7.28125q0 2.5625 2.078125 2.5625q2.21875 0 2.9375 -1.65625l0 -8.1875l1.9375 0l0 11.265625l-1.84375 0l-0.03125 -1.109375zm6.882538 1.109375l-1.921875 0l0 -16.0l1.921875 0l0 16.0zm5.1758423 0l-1.921875 0l0 -11.265625l1.921875 0l0 11.265625zm-2.078125 -14.25q0 -0.46875 0.28125 -0.796875q0.296875 -0.328125 0.859375 -0.328125q0.5625 0 0.84375 0.328125q0.296875 0.328125 0.296875 0.796875q0 0.46875 -0.296875 0.78125q-0.28125 0.3125 -0.84375 0.3125q-0.5625 0 -0.859375 -0.3125q-0.28125 -0.3125 -0.28125 -0.78125zm12.128937 14.25q-0.171875 -0.328125 -0.28125 -1.1875q-1.34375 1.390625 -3.203125 1.390625q-1.671875 0 -2.734375 -0.9375q-1.0625 -0.9375 -1.0625 -2.390625q0 -1.765625 1.328125 -2.734375q1.34375 -0.96875 3.765625 -0.96875l1.875 0l0 -0.890625q0 -1.015625 -0.609375 -1.609375q-0.59375 -0.59375 -1.765625 -0.59375q-1.03125 0 -1.734375 0.515625q-0.703125 0.515625 -0.703125 1.265625l-1.9375 0q0 -0.84375 0.59375 -1.625q0.609375 -0.796875 1.625 -1.25q1.03125 -0.453125 2.265625 -0.453125q1.953125 0 3.046875 0.96875q1.109375 0.96875 1.15625 2.671875l0 5.1875q0 1.5625 0.390625 2.46875l0 0.171875l-2.015625 0zm-3.203125 -1.46875q0.90625 0 1.71875 -0.46875q0.8125 -0.46875 1.171875 -1.21875l0 -2.3125l-1.5 0q-3.546875 0 -3.546875 2.078125q0 0.90625 0.59375 1.421875q0.609375 0.5 1.5625 0.5zm9.663849 -9.796875l0.0625 1.40625q1.296875 -1.609375 3.375 -1.609375q3.578125 0 3.609375 4.015625l0 7.453125l-1.9375 0l0 -7.453125q0 -1.21875 -0.546875 -1.796875q-0.546875 -0.59375 -1.703125 -0.59375q-0.9375 0 -1.65625 0.5q-0.703125 0.5 -1.09375 1.3125l0 8.03125l-1.9375 0l0 -11.265625l1.828125 0zm16.90857 11.265625q-0.171875 -0.328125 -0.28125 -1.1875q-1.34375 1.390625 -3.203125 1.390625q-1.671875 0 -2.734375 -0.9375q-1.0625 -0.9375 -1.0625 -2.390625q0 -1.765625 1.328125 -2.734375q1.34375 -0.96875 3.765625 -0.96875l1.875 0l0 -0.890625q0 -1.015625 -0.609375 -1.609375q-0.59375 -0.59375 -1.765625 -0.59375q-1.03125 0 -1.734375 0.515625q-0.703125 0.515625 -0.703125 1.265625l-1.9375 0q0 -0.84375 0.59375 -1.625q0.609375 -0.796875 1.625 -1.25q1.03125 -0.453125 2.265625 -0.453125q1.953125 0 3.046875 0.96875q1.109375 0.96875 1.15625 2.671875l0 5.1875q0 1.5625 0.390625 2.46875l0 0.171875l-2.015625 0zm-3.203125 -1.46875q0.90625 0 1.71875 -0.46875q0.8125 -0.46875 1.171875 -1.21875l0 -2.3125l-1.5 0q-3.546875 0 -3.546875 2.078125q0 0.90625 0.59375 1.421875q0.609375 0.5 1.5625 0.5zm7.403412 -9.421875l-1.09375 -0.75q0.96875 -1.359375 1.0 -2.859375l0 -1.5l1.90625 0l0 1.359375q-0.015625 1.046875 -0.515625 2.078125q-0.5 1.03125 -1.296875 1.671875zm3.203125 0l-1.09375 -0.75q0.96875 -1.359375 1.0 -2.859375l0 -1.5l1.90625 0l0 1.359375q-0.015625 1.046875 -0.515625 2.078125q-0.5 1.03125 -1.296875 1.671875z"/><path id="path25" fill="#d9d9d9" fill-rule="evenodd" d="m276.5466 274.5964l139.74805 0l0 66.20471l-139.74805 0z"/><path id="path27" fill-rule="evenodd" stroke="#fff" stroke-linecap="butt" stroke-linejoin="round" stroke-width="1" d="m276.5466 274.5964l139.74805 0l0 66.20471l-139.74805 0z"/><path id="path29" fill="#000" fill-rule="nonzero" d="m318.69373 298.99127l1.109375 0.75q-0.96875 1.3125 -1.0 2.84375l0 1.421875l-1.921875 0l0 -1.203125q0 -1.0625 0.5 -2.109375q0.515625 -1.046875 1.3125 -1.703125zm3.28125 0l1.109375 0.75q-0.96875 1.3125 -1.0 2.84375l0 1.421875l-1.921875 0l0 -1.203125q0 -1.0625 0.5 -2.109375q0.515625 -1.046875 1.3125 -1.703125zm9.477325 1.03125l2.015625 0l0 10.734375q0 2.171875 -1.3125 3.40625q-1.296875 1.21875 -3.484375 1.21875q-2.25 0 -3.515625 -1.15625q-1.265625 -1.15625 -1.265625 -3.234375l2.0 0q0 1.296875 0.71875 2.03125q0.71875 0.734375 2.0625 0.734375q1.25 0 2.015625 -0.78125q0.765625 -0.78125 0.765625 -2.1875l0 -10.765625zm4.611725 9.421875q0 -1.65625 0.640625 -2.984375q0.65625 -1.328125 1.8125 -2.03125q1.171875 -0.71875 2.65625 -0.71875q2.296875 0 3.71875 1.59375q1.421875 1.578125 1.421875 4.234375l0 0.125q0 1.65625 -0.625 2.96875q-0.625 1.296875 -1.796875 2.03125q-1.171875 0.71875 -2.703125 0.71875q-2.28125 0 -3.703125 -1.59375q-1.421875 -1.59375 -1.421875 -4.21875l0 -0.125zm1.9375 0.21875q0 1.875 0.859375 3.015625q0.875 1.140625 2.328125 1.140625q1.46875 0 2.328125 -1.15625q0.875 -1.15625 0.875 -3.21875q0 -1.859375 -0.890625 -3.0q-0.875 -1.15625 -2.328125 -1.15625q-1.421875 0 -2.296875 1.140625q-0.875 1.125 -0.875 3.234375zm17.288696 2.53125q0 -0.78125 -0.59375 -1.21875q-0.578125 -0.4375 -2.046875 -0.75q-1.453125 -0.3125 -2.3125 -0.75q-0.859375 -0.4375 -1.28125 -1.03125q-0.40625 -0.609375 -0.40625 -1.4375q0 -1.390625 1.171875 -2.34375q1.171875 -0.953125 3.0 -0.953125q1.90625 0 3.09375 0.984375q1.203125 0.984375 1.203125 2.53125l-1.9375 0q0 -0.796875 -0.671875 -1.359375q-0.671875 -0.578125 -1.6875 -0.578125q-1.0625 0 -1.65625 0.453125q-0.59375 0.453125 -0.59375 1.203125q0 0.6875 0.546875 1.046875q0.5625 0.359375 2.0 0.6875q1.453125 0.3125 2.34375 0.765625q0.890625 0.4375 1.328125 1.078125q0.4375 0.625 0.4375 1.53125q0 1.515625 -1.21875 2.421875q-1.203125 0.90625 -3.125 0.90625q-1.359375 0 -2.40625 -0.46875q-1.03125 -0.484375 -1.625 -1.34375q-0.59375 -0.859375 -0.59375 -1.859375l1.9375 0q0.046875 0.96875 0.765625 1.546875q0.734375 0.5625 1.921875 0.5625q1.09375 0 1.75 -0.4375q0.65625 -0.453125 0.65625 -1.1875zm9.122314 3.1875q-2.296875 0 -3.734375 -1.5q-1.4375 -1.5 -1.4375 -4.03125l0 -0.34375q0 -1.6875 0.640625 -3.0q0.640625 -1.3125 1.78125 -2.046875q1.15625 -0.75 2.5 -0.75q2.203125 0 3.421875 1.453125q1.21875 1.4375 1.21875 4.125l0 0.8125l-7.640625 0q0.046875 1.65625 0.96875 2.6875q0.9375 1.03125 2.375 1.03125q1.03125 0 1.734375 -0.421875q0.703125 -0.421875 1.234375 -1.109375l1.1875 0.921875q-1.421875 2.171875 -4.25 2.171875zm-0.25 -10.09375q-1.15625 0 -1.953125 0.84375q-0.796875 0.84375 -0.984375 2.375l5.65625 0l0 -0.140625q-0.09375 -1.46875 -0.796875 -2.265625q-0.703125 -0.8125 -1.921875 -0.8125zm0.953125 -6.109375l2.328125 0l-2.796875 3.0625l-1.546875 0l2.015625 -3.0625zm6.0285034 5.109375l-1.09375 -0.75q0.96875 -1.359375 1.0 -2.859375l0 -1.5l1.90625 0l0 1.359375q-0.015625 1.046875 -0.515625 2.078125q-0.5 1.03125 -1.296875 1.671875zm3.203125 0l-1.09375 -0.75q0.96875 -1.359375 1.0 -2.859375l0 -1.5l1.90625 0l0 1.359375q-0.015625 1.046875 -0.515625 2.078125q-0.5 1.03125 -1.296875 1.671875z"/><path id="path31" fill="#d9d9d9" fill-rule="evenodd" d="m276.5466 349.99512l139.74805 0l0 66.20471l-139.74805 0z"/><path id="path33" fill-rule="evenodd" stroke="#fff" stroke-linecap="butt" stroke-linejoin="round" stroke-width="1" d="m276.5466 349.99512l139.74805 0l0 66.20471l-139.74805 0z"/><path id="path35" fill="#000" fill-rule="nonzero" d="m314.53348 374.38998l1.109375 0.75q-0.96875 1.3125 -1.0 2.84375l0 1.421875l-1.921875 0l0 -1.203125q0 -1.0625 0.5 -2.109375q0.515625 -1.046875 1.3125 -1.703125zm3.28125 0l1.109375 0.75q-0.96875 1.3125 -1.0 2.84375l0 1.421875l-1.921875 0l0 -1.203125q0 -1.0625 0.5 -2.109375q0.515625 -1.046875 1.3125 -1.703125zm5.1335754 10.25l0 5.9375l-2.0 0l0 -15.15625l5.59375 0q2.484375 0 3.890625 1.265625q1.40625 1.265625 1.40625 3.359375q0 2.203125 -1.375 3.40625q-1.375 1.1875 -3.953125 1.1875l-3.5625 0zm0 -1.640625l3.59375 0q1.59375 0 2.453125 -0.75q0.859375 -0.75 0.859375 -2.1875q0 -1.34375 -0.859375 -2.15625q-0.859375 -0.8125 -2.34375 -0.84375l-3.703125 0l0 5.9375zm15.694641 7.78125q-2.296875 0 -3.734375 -1.5q-1.4375 -1.5 -1.4375 -4.03125l0 -0.34375q0 -1.6875 0.640625 -3.0q0.640625 -1.3125 1.78125 -2.046875q1.15625 -0.75 2.5 -0.75q2.203125 0 3.421875 1.453125q1.21875 1.4375 1.21875 4.125l0 0.8125l-7.640625 0q0.046875 1.65625 0.96875 2.6875q0.9375 1.03125 2.375 1.03125q1.03125 0 1.734375 -0.421875q0.703125 -0.421875 1.234375 -1.109375l1.1875 0.921875q-1.421875 2.171875 -4.25 2.171875zm-0.25 -10.09375q-1.15625 0 -1.953125 0.84375q-0.796875 0.84375 -0.984375 2.375l5.65625 0l0 -0.140625q-0.09375 -1.46875 -0.796875 -2.265625q-0.703125 -0.8125 -1.921875 -0.8125zm6.3930664 4.15625q0 -2.59375 1.234375 -4.15625q1.234375 -1.578125 3.21875 -1.578125q1.984375 0 3.140625 1.34375l0 -5.875l1.921875 0l0 16.0l-1.765625 0l-0.09375 -1.203125q-1.15625 1.40625 -3.21875 1.40625q-1.96875 0 -3.203125 -1.59375q-1.234375 -1.609375 -1.234375 -4.1875l0 -0.15625zm1.9375 0.21875q0 1.921875 0.78125 3.015625q0.796875 1.078125 2.1875 1.078125q1.84375 0 2.6875 -1.65625l0 -5.171875q-0.875 -1.59375 -2.65625 -1.59375q-1.421875 0 -2.21875 1.09375q-0.78125 1.09375 -0.78125 3.234375zm16.012695 -4.03125q-0.4375 -0.0625 -0.953125 -0.0625q-1.890625 0 -2.5625 1.609375l0 8.0l-1.9375 0l0 -11.265625l1.875 0l0.03125 1.296875q0.953125 -1.5 2.6875 -1.5q0.5625 0 0.859375 0.140625l0 1.78125zm1.055542 3.8125q0 -1.65625 0.640625 -2.984375q0.65625 -1.328125 1.8125 -2.03125q1.171875 -0.71875 2.65625 -0.71875q2.296875 0 3.71875 1.59375q1.421875 1.578125 1.421875 4.234375l0 0.125q0 1.65625 -0.625 2.96875q-0.625 1.296875 -1.796875 2.03125q-1.171875 0.71875 -2.703125 0.71875q-2.28125 0 -3.703125 -1.59375q-1.421875 -1.59375 -1.421875 -4.21875l0 -0.125zm1.9375 0.21875q0 1.875 0.859375 3.015625q0.875 1.140625 2.328125 1.140625q1.46875 0 2.328125 -1.15625q0.875 -1.15625 0.875 -3.21875q0 -1.859375 -0.890625 -3.0q-0.875 -1.15625 -2.328125 -1.15625q-1.421875 0 -2.296875 1.140625q-0.875 1.125 -0.875 3.234375zm9.575165 -5.375l-1.09375 -0.75q0.96875 -1.359375 1.0 -2.859375l0 -1.5l1.90625 0l0 1.359375q-0.015625 1.046875 -0.515625 2.078125q-0.5 1.03125 -1.296875 1.671875zm3.203125 0l-1.09375 -0.75q0.96875 -1.359375 1.0 -2.859375l0 -1.5l1.90625 0l0 1.359375q-0.015625 1.046875 -0.515625 2.078125q-0.5 1.03125 -1.296875 1.671875z"/><path id="path37" fill="#d9d9d9" fill-rule="evenodd" d="m276.5466 425.39407l139.74805 0l0 66.20471l-139.74805 0z"/><path id="path39" fill-rule="evenodd" stroke="#fff" stroke-linecap="butt" stroke-linejoin="round" stroke-width="1" d="m276.5466 425.39407l139.74805 0l0 66.20471l-139.74805 0z"/><path id="path41" fill="#000" fill-rule="nonzero" d="m334.20056 449.78894l1.109375 0.75q-0.96875 1.3125 -1.0 2.84375l0 1.421875l-1.921875 0l0 -1.203125q0 -1.0625 0.5 -2.109375q0.515625 -1.046875 1.3125 -1.703125zm3.28125 0l1.109375 0.75q-0.96875 1.3125 -1.0 2.84375l0 1.421875l-1.921875 0l0 -1.203125q0 -1.0625 0.5 -2.109375q0.515625 -1.046875 1.3125 -1.703125zm2.8679504 15.171875q0 -0.5 0.296875 -0.828125q0.296875 -0.328125 0.890625 -0.328125q0.59375 0 0.890625 0.328125q0.3125 0.328125 0.3125 0.828125q0 0.484375 -0.3125 0.8125q-0.296875 0.3125 -0.890625 0.3125q-0.59375 0 -0.890625 -0.3125q-0.296875 -0.328125 -0.296875 -0.8125zm5.61322 0q0 -0.5 0.296875 -0.828125q0.296875 -0.328125 0.890625 -0.328125q0.59375 0 0.890625 0.328125q0.3125 0.328125 0.3125 0.828125q0 0.484375 -0.3125 0.8125q-0.296875 0.3125 -0.890625 0.3125q-0.59375 0 -0.890625 -0.3125q-0.296875 -0.328125 -0.296875 -0.8125zm5.61322 0q0 -0.5 0.296875 -0.828125q0.296875 -0.328125 0.890625 -0.328125q0.59375 0 0.890625 0.328125q0.3125 0.328125 0.3125 0.828125q0 0.484375 -0.3125 0.8125q-0.296875 0.3125 -0.890625 0.3125q-0.59375 0 -0.890625 -0.3125q-0.296875 -0.328125 -0.296875 -0.8125zm4.0611267 -9.875l-1.09375 -0.75q0.96875 -1.359375 1.0 -2.859375l0 -1.5l1.90625 0l0 1.359375q-0.015625 1.046875 -0.515625 2.078125q-0.5 1.03125 -1.296875 1.671875zm3.203125 0l-1.09375 -0.75q0.96875 -1.359375 1.0 -2.859375l0 -1.5l1.90625 0l0 1.359375q-0.015625 1.046875 -0.515625 2.078125q-0.5 1.03125 -1.296875 1.671875z"/><path id="path43" fill="#999" fill-rule="evenodd" d="m124.12667 123.79897l139.74802 0l0 66.204735l-139.74802 0z"/><path id="path45" fill-rule="evenodd" stroke="#434343" stroke-linecap="butt" stroke-linejoin="round" stroke-width="1" d="m124.12667 123.79897l139.74802 0l0 66.204735l-139.74802 0z"/><path id="path47" fill="#fff" fill-rule="nonzero" d="m196.36076 165.16133l-3.1875 0l0 -12.328125l-3.828125 1.1875l0 -2.59375l6.671875 -2.390625l0.34375 0l0 16.125z"/><path id="path49" fill="#999" fill-rule="evenodd" d="m124.12667 199.1977l139.74802 0l0 66.20471l-139.74802 0z"/><path id="path51" fill-rule="evenodd" stroke="#434343" stroke-linecap="butt" stroke-linejoin="round" stroke-width="1" d="m124.12667 199.1977l139.74802 0l0 66.20471l-139.74802 0z"/><path id="path53" fill="#fff" fill-rule="nonzero" d="m199.64201 240.56004l-11.046875 0l0 -2.1875l5.21875 -5.5625q1.0625 -1.171875 1.578125 -2.046875q0.515625 -0.875 0.515625 -1.65625q0 -1.0625 -0.546875 -1.671875q-0.53125 -0.625 -1.546875 -0.625q-1.078125 0 -1.703125 0.75q-0.625 0.75 -0.625 1.953125l-3.203125 0q0 -1.46875 0.6875 -2.6875q0.703125 -1.21875 1.984375 -1.90625q1.296875 -0.6875 2.921875 -0.6875q2.484375 0 3.859375 1.203125q1.375 1.1875 1.375 3.359375q0 1.203125 -0.625 2.4375q-0.609375 1.234375 -2.109375 2.890625l-3.671875 3.859375l6.9375 0l0 2.578125z"/><path id="path55" fill="#999" fill-rule="evenodd" d="m124.12667 274.5964l139.74802 0l0 66.20471l-139.74802 0z"/><path id="path57" fill-rule="evenodd" stroke="#434343" stroke-linecap="butt" stroke-linejoin="round" stroke-width="1" d="m124.12667 274.5964l139.74802 0l0 66.20471l-139.74802 0z"/><path id="path59" fill="#fff" fill-rule="nonzero" d="m191.84514 306.49002l1.703125 0q1.21875 0 1.796875 -0.609375q0.59375 -0.609375 0.59375 -1.609375q0 -0.984375 -0.578125 -1.515625q-0.578125 -0.546875 -1.59375 -0.546875q-0.921875 0 -1.546875 0.5q-0.609375 0.5 -0.609375 1.3125l-3.203125 0q0 -1.265625 0.671875 -2.265625q0.6875 -1.0 1.90625 -1.5625q1.234375 -0.5625 2.703125 -0.5625q2.546875 0 4.0 1.21875q1.453125 1.21875 1.453125 3.375q0 1.109375 -0.6875 2.046875q-0.671875 0.921875 -1.765625 1.40625q1.359375 0.5 2.03125 1.46875q0.671875 0.96875 0.671875 2.296875q0 2.140625 -1.5625 3.4375q-1.5625 1.296875 -4.140625 1.296875q-2.421875 0 -3.953125 -1.265625q-1.53125 -1.28125 -1.53125 -3.359375l3.203125 0q0 0.90625 0.671875 1.484375q0.6875 0.5625 1.6875 0.5625q1.140625 0 1.78125 -0.59375q0.640625 -0.609375 0.640625 -1.609375q0 -2.40625 -2.640625 -2.40625l-1.703125 0l0 -2.5z"/><path id="path61" fill="#999" fill-rule="evenodd" d="m124.12667 349.99512l139.74802 0l0 66.20471l-139.74802 0z"/><path id="path63" fill-rule="evenodd" stroke="#434343" stroke-linecap="butt" stroke-linejoin="round" stroke-width="1" d="m124.12667 349.99512l139.74802 0l0 66.20471l-139.74802 0z"/><path id="path65" fill="#fff" fill-rule="nonzero" d="m198.04826 385.29498l1.828125 0l0 2.578125l-1.828125 0l0 3.484375l-3.1875 0l0 -3.484375l-6.609375 0l-0.140625 -2.015625l6.71875 -10.609375l3.21875 0l0 10.046875zm-6.75 0l3.5625 0l0 -5.6875l-0.21875 0.359375l-3.34375 5.328125z"/><path id="path67" fill="#999" fill-rule="evenodd" d="m124.12667 425.39407l139.74802 0l0 66.20471l-139.74802 0z"/><path id="path69" fill-rule="evenodd" stroke="#434343" stroke-linecap="butt" stroke-linejoin="round" stroke-width="1" d="m124.12667 425.39407l139.74802 0l0 66.20471l-139.74802 0z"/><path id="path71" fill="#fff" fill-rule="nonzero" d="m189.07951 458.83456l0.921875 -8.1875l9.03125 0l0 2.671875l-6.40625 0l-0.40625 3.453125q1.140625 -0.609375 2.421875 -0.609375q2.3125 0 3.609375 1.4375q1.3125 1.421875 1.3125 3.984375q0 1.5625 -0.671875 2.796875q-0.65625 1.234375 -1.890625 1.921875q-1.21875 0.671875 -2.890625 0.671875q-1.453125 0 -2.703125 -0.59375q-1.25 -0.59375 -1.984375 -1.65625q-0.71875 -1.078125 -0.765625 -2.453125l3.171875 0q0.09375 1.015625 0.6875 1.578125q0.609375 0.546875 1.59375 0.546875q1.078125 0 1.65625 -0.78125q0.59375 -0.78125 0.59375 -2.203125q0 -1.375 -0.671875 -2.09375q-0.671875 -0.734375 -1.921875 -0.734375q-1.125 0 -1.84375 0.59375l-0.3125 0.28125l-2.53125 -0.625z"/><path id="path73" fill="#999" fill-rule="evenodd" d="m695.08203 48.40026l139.74805 0l0 66.20473l-139.74805 0z"/><path id="path75" fill-rule="evenodd" stroke="#434343" stroke-linecap="butt" stroke-linejoin="round" stroke-width="1" d="m695.08203 48.40026l139.74805 0l0 66.20473l-139.74805 0z"/><path id="path77" fill="#fff" fill-rule="nonzero" d="m743.2992 86.353874l4.078125 -13.53125l4.125 0l-6.265625 18.0l-3.875 0l-6.234375 -18.0l4.109375 0l4.0625 13.53125zm16.850098 4.46875q-0.25 -0.484375 -0.359375 -1.203125q-1.296875 1.453125 -3.375 1.453125q-1.96875 0 -3.265625 -1.140625q-1.28125 -1.140625 -1.28125 -2.875q0 -2.125 1.578125 -3.25q1.578125 -1.140625 4.546875 -1.15625l1.65625 0l0 -0.765625q0 -0.9375 -0.484375 -1.484375q-0.46875 -0.5625 -1.5 -0.5625q-0.90625 0 -1.421875 0.4375q-0.5 0.4375 -0.5 1.1875l-3.578125 0q0 -1.171875 0.71875 -2.15625q0.71875 -0.984375 2.015625 -1.546875q1.3125 -0.5625 2.953125 -0.5625q2.46875 0 3.921875 1.25q1.453125 1.234375 1.453125 3.484375l0 5.796875q0.015625 1.90625 0.53125 2.890625l0 0.203125l-3.609375 0zm-2.953125 -2.484375q0.796875 0 1.453125 -0.34375q0.671875 -0.359375 1.0 -0.953125l0 -2.296875l-1.34375 0q-2.6875 0 -2.859375 1.84375l0 0.21875q0 0.671875 0.46875 1.109375q0.46875 0.421875 1.28125 0.421875zm12.547974 2.484375l-3.578125 0l0 -19.0l3.578125 0l0 19.0zm2.387329 -6.8125q0 -2.0 0.765625 -3.546875q0.765625 -1.5625 2.203125 -2.40625q1.453125 -0.859375 3.359375 -0.859375q2.703125 0 4.40625 1.65625q1.71875 1.65625 1.921875 4.5l0.03125 0.921875q0 3.078125 -1.734375 4.9375q-1.71875 1.859375 -4.609375 1.859375q-2.890625 0 -4.625 -1.859375q-1.71875 -1.859375 -1.71875 -5.046875l0 -0.15625zm3.578125 0.265625q0 1.890625 0.71875 2.90625q0.71875 1.0 2.046875 1.0q1.296875 0 2.03125 -0.984375q0.734375 -1.0 0.734375 -3.1875q0 -1.875 -0.734375 -2.890625q-0.734375 -1.03125 -2.046875 -1.03125q-1.3125 0 -2.03125 1.03125q-0.71875 1.015625 -0.71875 3.15625zm18.82129 -3.484375q-0.734375 -0.09375 -1.28125 -0.09375q-2.03125 0 -2.65625 1.375l0 8.75l-3.578125 0l0 -13.375l3.375 0l0.09375 1.59375q1.078125 -1.84375 2.984375 -1.84375q0.59375 0 1.109375 0.15625l-0.046875 3.4375z"/><path id="path79" fill="#d9d9d9" fill-rule="evenodd" d="m695.08203 123.79897l139.74805 0l0 66.204735l-139.74805 0z"/><path id="path81" fill-rule="evenodd" stroke="#fff" stroke-linecap="butt" stroke-linejoin="round" stroke-width="1" d="m695.08203 123.79897l139.74805 0l0 66.204735l-139.74805 0z"/><path id="path83" fill="#000" fill-rule="nonzero" d="m745.7907 164.38133l-1.9375 0l0 -12.84375l-3.890625 1.4375l0 -1.75l5.53125 -2.078125l0.296875 0l0 15.234375zm13.023132 -6.671875q-0.59375 0.71875 -1.4375 1.15625q-0.84375 0.4375 -1.84375 0.4375q-1.3125 0 -2.28125 -0.640625q-0.96875 -0.640625 -1.5 -1.8125q-0.53125 -1.171875 -0.53125 -2.59375q0 -1.515625 0.578125 -2.734375q0.578125 -1.21875 1.640625 -1.859375q1.0625 -0.65625 2.46875 -0.65625q2.25 0 3.546875 1.6875q1.296875 1.6875 1.296875 4.578125l0 0.5625q0 4.4375 -1.75 6.46875q-1.75 2.03125 -5.28125 2.09375l-0.375 0l0 -1.625l0.40625 0q2.390625 -0.046875 3.671875 -1.25q1.28125 -1.203125 1.390625 -3.8125zm-2.96875 0q0.96875 0 1.78125 -0.59375q0.828125 -0.59375 1.203125 -1.46875l0 -0.765625q0 -1.890625 -0.828125 -3.078125q-0.8125 -1.1875 -2.078125 -1.1875q-1.265625 0 -2.046875 0.984375q-0.765625 0.96875 -0.765625 2.546875q0 1.5625 0.734375 2.5625q0.75 1.0 2.0 1.0zm7.8043823 5.65625q0 -0.5 0.296875 -0.828125q0.296875 -0.328125 0.890625 -0.328125q0.59375 0 0.890625 0.328125q0.3125 0.328125 0.3125 0.828125q0 0.484375 -0.3125 0.8125q-0.296875 0.3125 -0.890625 0.3125q-0.59375 0 -0.890625 -0.3125q-0.296875 -0.328125 -0.296875 -0.8125zm12.753845 -5.65625q-0.59375 0.71875 -1.4375 1.15625q-0.84375 0.4375 -1.84375 0.4375q-1.3125 0 -2.28125 -0.640625q-0.96875 -0.640625 -1.5 -1.8125q-0.53125 -1.171875 -0.53125 -2.59375q0 -1.515625 0.578125 -2.734375q0.578125 -1.21875 1.640625 -1.859375q1.0625 -0.65625 2.46875 -0.65625q2.25 0 3.546875 1.6875q1.296875 1.6875 1.296875 4.578125l0 0.5625q0 4.4375 -1.75 6.46875q-1.75 2.03125 -5.28125 2.09375l-0.375 0l0 -1.625l0.40625 0q2.390625 -0.046875 3.671875 -1.25q1.28125 -1.203125 1.390625 -3.8125zm-2.96875 0q0.96875 0 1.78125 -0.59375q0.828125 -0.59375 1.203125 -1.46875l0 -0.765625q0 -1.890625 -0.828125 -3.078125q-0.8125 -1.1875 -2.078125 -1.1875q-1.265625 0 -2.046875 0.984375q-0.765625 0.96875 -0.765625 2.546875q0 1.5625 0.734375 2.5625q0.75 1.0 2.0 1.0zm17.069946 0.203125q0 3.390625 -1.15625 5.03125q-1.15625 1.640625 -3.609375 1.640625q-2.421875 0 -3.59375 -1.609375q-1.171875 -1.609375 -1.203125 -4.796875l0 -2.578125q0 -3.34375 1.15625 -4.96875q1.15625 -1.625 3.625 -1.625q2.4375 0 3.59375 1.578125q1.15625 1.5625 1.1875 4.828125l0 2.5zm-1.921875 -2.640625q0 -2.4375 -0.6875 -3.546875q-0.6875 -1.125 -2.171875 -1.125q-1.484375 0 -2.171875 1.109375q-0.671875 1.109375 -0.6875 3.421875l0 3.078125q0 2.46875 0.703125 3.640625q0.71875 1.171875 2.171875 1.171875q1.421875 0 2.109375 -1.109375q0.703125 -1.109375 0.734375 -3.484375l0 -3.15625z"/><path id="path85" fill="#d9d9d9" fill-rule="evenodd" d="m695.08203 199.1977l139.74805 0l0 66.20471l-139.74805 0z"/><path id="path87" fill-rule="evenodd" stroke="#fff" stroke-linecap="butt" stroke-linejoin="round" stroke-width="1" d="m695.08203 199.1977l139.74805 0l0 66.20471l-139.74805 0z"/><path id="path89" fill="#000" fill-rule="nonzero" d="m755.232 225.70192l-6.28125 14.078125l-2.015625 0l6.265625 -13.578125l-8.21875 0l0 -1.578125l10.25 0l0 1.078125zm2.4293213 13.0625q0 -0.5 0.296875 -0.828125q0.296875 -0.328125 0.890625 -0.328125q0.59375 0 0.890625 0.328125q0.3125 0.328125 0.3125 0.828125q0 0.484375 -0.3125 0.8125q-0.296875 0.3125 -0.890625 0.3125q-0.59375 0 -0.890625 -0.3125q-0.296875 -0.328125 -0.296875 -0.8125zm6.253845 -6.59375l0.78125 -7.546875l7.765625 0l0 1.78125l-6.140625 0l-0.453125 4.125q1.109375 -0.65625 2.53125 -0.65625q2.078125 0 3.28125 1.375q1.21875 1.359375 1.21875 3.703125q0 2.34375 -1.265625 3.6875q-1.25 1.34375 -3.53125 1.34375q-2.0 0 -3.28125 -1.109375q-1.265625 -1.109375 -1.4375 -3.078125l1.8125 0q0.1875 1.296875 0.9375 1.96875q0.75 0.65625 1.96875 0.65625q1.34375 0 2.109375 -0.921875q0.765625 -0.921875 0.765625 -2.53125q0 -1.515625 -0.828125 -2.4375q-0.828125 -0.921875 -2.203125 -0.921875q-1.25 0 -1.96875 0.546875l-0.515625 0.421875l-1.546875 -0.40625zm18.663757 -7.5625l0 1.640625l-0.359375 0q-2.25 0.03125 -3.59375 1.328125q-1.328125 1.296875 -1.53125 3.625q1.203125 -1.375 3.265625 -1.375q1.984375 0 3.15625 1.40625q1.1875 1.390625 1.1875 3.59375q0 2.34375 -1.28125 3.75q-1.265625 1.40625 -3.40625 1.40625q-2.1875 0 -3.546875 -1.671875q-1.34375 -1.671875 -1.34375 -4.296875l0 -0.75q0 -4.171875 1.78125 -6.390625q1.796875 -2.21875 5.328125 -2.265625l0.34375 0zm-2.53125 6.828125q-1.0 0 -1.828125 0.59375q-0.828125 0.59375 -1.15625 1.484375l0 0.71875q0 1.875 0.84375 3.015625q0.84375 1.140625 2.109375 1.140625q1.296875 0 2.03125 -0.953125q0.75 -0.953125 0.75 -2.515625q0 -1.5625 -0.75 -2.515625q-0.75 -0.96875 -2.0 -0.96875z"/><path id="path91" fill="#d9d9d9" fill-rule="evenodd" d="m695.08203 274.5964l139.74805 0l0 66.20471l-139.74805 0z"/><path id="path93" fill-rule="evenodd" stroke="#fff" stroke-linecap="butt" stroke-linejoin="round" stroke-width="1" d="m695.08203 274.5964l139.74805 0l0 66.20471l-139.74805 0z"/><path id="path95" fill="#000" fill-rule="nonzero" d="m748.2476 306.66315l1.453125 0q1.359375 -0.03125 2.140625 -0.71875q0.78125 -0.703125 0.78125 -1.890625q0 -2.65625 -2.65625 -2.65625q-1.25 0 -2.0 0.71875q-0.734375 0.703125 -0.734375 1.875l-1.9375 0q0 -1.796875 1.3125 -2.984375q1.328125 -1.203125 3.359375 -1.203125q2.140625 0 3.359375 1.140625q1.21875 1.140625 1.21875 3.15625q0 0.984375 -0.640625 1.921875q-0.640625 0.921875 -1.734375 1.375q1.25 0.390625 1.921875 1.3125q0.6875 0.921875 0.6875 2.234375q0 2.046875 -1.34375 3.25q-1.328125 1.1875 -3.46875 1.1875q-2.125 0 -3.46875 -1.15625q-1.328125 -1.15625 -1.328125 -3.046875l1.9375 0q0 1.203125 0.78125 1.921875q0.78125 0.71875 2.09375 0.71875q1.390625 0 2.125 -0.734375q0.75 -0.734375 0.75 -2.09375q0 -1.328125 -0.8125 -2.03125q-0.8125 -0.703125 -2.34375 -0.734375l-1.453125 0l0 -1.5625zm9.413696 7.5q0 -0.5 0.296875 -0.828125q0.296875 -0.328125 0.890625 -0.328125q0.59375 0 0.890625 0.328125q0.3125 0.328125 0.3125 0.828125q0 0.484375 -0.3125 0.8125q-0.296875 0.3125 -0.890625 0.3125q-0.59375 0 -0.890625 -0.3125q-0.296875 -0.328125 -0.296875 -0.8125zm11.70697 1.015625l-1.9375 0l0 -12.84375l-3.890625 1.4375l0 -1.75l5.53125 -2.078125l0.296875 0l0 15.234375zm15.570007 0l-9.921875 0l0 -1.390625l5.25 -5.828125q1.15625 -1.328125 1.59375 -2.15625q0.453125 -0.828125 0.453125 -1.703125q0 -1.1875 -0.71875 -1.9375q-0.71875 -0.765625 -1.921875 -0.765625q-1.4375 0 -2.234375 0.8125q-0.796875 0.8125 -0.796875 2.28125l-1.921875 0q0 -2.09375 1.34375 -3.390625q1.359375 -1.296875 3.609375 -1.296875q2.125 0 3.34375 1.109375q1.234375 1.109375 1.234375 2.953125q0 2.234375 -2.859375 5.328125l-4.0625 4.40625l7.609375 0l0 1.578125z"/><path id="path97" fill="#d9d9d9" fill-rule="evenodd" d="m695.08203 349.99512l139.74805 0l0 66.20471l-139.74805 0z"/><path id="path99" fill-rule="evenodd" stroke="#fff" stroke-linecap="butt" stroke-linejoin="round" stroke-width="1" d="m695.08203 349.99512l139.74805 0l0 66.20471l-139.74805 0z"/><path id="path101" fill="#000" fill-rule="nonzero" d="m753.57574 385.48373l2.109375 0l0 1.578125l-2.109375 0l0 3.515625l-1.9375 0l0 -3.515625l-6.90625 0l0 -1.140625l6.796875 -10.5l2.046875 0l0 10.0625zm-6.65625 0l4.71875 0l0 -7.4375l-0.21875 0.421875l-4.5 7.015625zm10.741821 4.078125q0 -0.5 0.296875 -0.828125q0.296875 -0.328125 0.890625 -0.328125q0.59375 0 0.890625 0.328125q0.3125 0.328125 0.3125 0.828125q0 0.484375 -0.3125 0.8125q-0.296875 0.3125 -0.890625 0.3125q-0.59375 0 -0.890625 -0.3125q-0.296875 -0.328125 -0.296875 -0.8125zm13.503845 -4.078125l2.109375 0l0 1.578125l-2.109375 0l0 3.515625l-1.9375 0l0 -3.515625l-6.90625 0l0 -1.140625l6.796875 -10.5l2.046875 0l0 10.0625zm-6.65625 0l4.71875 0l0 -7.4375l-0.21875 0.421875l-4.5 7.015625zm18.632507 0l2.109375 0l0 1.578125l-2.109375 0l0 3.515625l-1.9375 0l0 -3.515625l-6.90625 0l0 -1.140625l6.796875 -10.5l2.046875 0l0 10.0625zm-6.65625 0l4.71875 0l0 -7.4375l-0.21875 0.421875l-4.5 7.015625z"/><path id="path103" fill="#d9d9d9" fill-rule="evenodd" d="m695.08203 425.39407l139.74805 0l0 66.20471l-139.74805 0z"/><path id="path105" fill-rule="evenodd" stroke="#fff" stroke-linecap="butt" stroke-linejoin="round" stroke-width="1" d="m695.08203 425.39407l139.74805 0l0 66.20471l-139.74805 0z"/><path id="path107" fill="#000" fill-rule="nonzero" d="m749.38446 465.97644l-9.921875 0l0 -1.390625l5.25 -5.828125q1.15625 -1.328125 1.59375 -2.15625q0.453125 -0.828125 0.453125 -1.703125q0 -1.1875 -0.71875 -1.9375q-0.71875 -0.765625 -1.921875 -0.765625q-1.4375 0 -2.234375 0.8125q-0.796875 0.8125 -0.796875 2.28125l-1.921875 0q0 -2.09375 1.34375 -3.390625q1.359375 -1.296875 3.609375 -1.296875q2.125 0 3.34375 1.109375q1.234375 1.109375 1.234375 2.953125q0 2.234375 -2.859375 5.328125l-4.0625 4.40625l7.609375 0l0 1.578125zm9.429382 -6.671875q-0.59375 0.71875 -1.4375 1.15625q-0.84375 0.4375 -1.84375 0.4375q-1.3125 0 -2.28125 -0.640625q-0.96875 -0.640625 -1.5 -1.8125q-0.53125 -1.171875 -0.53125 -2.59375q0 -1.515625 0.578125 -2.734375q0.578125 -1.21875 1.640625 -1.859375q1.0625 -0.65625 2.46875 -0.65625q2.25 0 3.546875 1.6875q1.296875 1.6875 1.296875 4.578125l0 0.5625q0 4.4375 -1.75 6.46875q-1.75 2.03125 -5.28125 2.09375l-0.375 0l0 -1.625l0.40625 0q2.390625 -0.046875 3.671875 -1.25q1.28125 -1.203125 1.390625 -3.8125zm-2.96875 0q0.96875 0 1.78125 -0.59375q0.828125 -0.59375 1.203125 -1.46875l0 -0.765625q0 -1.890625 -0.828125 -3.078125q-0.8125 -1.1875 -2.078125 -1.1875q-1.265625 0 -2.046875 0.984375q-0.765625 0.96875 -0.765625 2.546875q0 1.5625 0.734375 2.5625q0.75 1.0 2.0 1.0zm7.8043823 5.65625q0 -0.5 0.296875 -0.828125q0.296875 -0.328125 0.890625 -0.328125q0.59375 0 0.890625 0.328125q0.3125 0.328125 0.3125 0.828125q0 0.484375 -0.3125 0.8125q-0.296875 0.3125 -0.890625 0.3125q-0.59375 0 -0.890625 -0.3125q-0.296875 -0.328125 -0.296875 -0.8125zm12.753845 -5.65625q-0.59375 0.71875 -1.4375 1.15625q-0.84375 0.4375 -1.84375 0.4375q-1.3125 0 -2.28125 -0.640625q-0.96875 -0.640625 -1.5 -1.8125q-0.53125 -1.171875 -0.53125 -2.59375q0 -1.515625 0.578125 -2.734375q0.578125 -1.21875 1.640625 -1.859375q1.0625 -0.65625 2.46875 -0.65625q2.25 0 3.546875 1.6875q1.296875 1.6875 1.296875 4.578125l0 0.5625q0 4.4375 -1.75 6.46875q-1.75 2.03125 -5.28125 2.09375l-0.375 0l0 -1.625l0.40625 0q2.390625 -0.046875 3.671875 -1.25q1.28125 -1.203125 1.390625 -3.8125zm-2.96875 0q0.96875 0 1.78125 -0.59375q0.828125 -0.59375 1.203125 -1.46875l0 -0.765625q0 -1.890625 -0.828125 -3.078125q-0.8125 -1.1875 -2.078125 -1.1875q-1.265625 0 -2.046875 0.984375q-0.765625 0.96875 -0.765625 2.546875q0 1.5625 0.734375 2.5625q0.75 1.0 2.0 1.0zm17.069946 0.203125q0 3.390625 -1.15625 5.03125q-1.15625 1.640625 -3.609375 1.640625q-2.421875 0 -3.59375 -1.609375q-1.171875 -1.609375 -1.203125 -4.796875l0 -2.578125q0 -3.34375 1.15625 -4.96875q1.15625 -1.625 3.625 -1.625q2.4375 0 3.59375 1.578125q1.15625 1.5625 1.1875 4.828125l0 2.5zm-1.921875 -2.640625q0 -2.4375 -0.6875 -3.546875q-0.6875 -1.125 -2.171875 -1.125q-1.484375 0 -2.171875 1.109375q-0.671875 1.109375 -0.6875 3.421875l0 3.078125q0 2.46875 0.703125 3.640625q0.71875 1.171875 2.171875 1.171875q1.421875 0 2.109375 -1.109375q0.703125 -1.109375 0.734375 -3.484375l0 -3.15625z"/><path id="path109" fill="#999" fill-rule="evenodd" d="m542.6621 123.79897l139.74805 0l0 66.204735l-139.74805 0z"/><path id="path111" fill-rule="evenodd" stroke="#434343" stroke-linecap="butt" stroke-linejoin="round" stroke-width="1" d="m542.6621 123.79897l139.74805 0l0 66.204735l-139.74805 0z"/><path id="path113" fill="#fff" fill-rule="nonzero" d="m614.8962 165.16133l-3.1875 0l0 -12.328125l-3.828125 1.1875l0 -2.59375l6.671875 -2.390625l0.34375 0l0 16.125z"/><path id="path115" fill="#999" fill-rule="evenodd" d="m542.6621 199.1977l139.74805 0l0 66.20471l-139.74805 0z"/><path id="path117" fill-rule="evenodd" stroke="#434343" stroke-linecap="butt" stroke-linejoin="round" stroke-width="1" d="m542.6621 199.1977l139.74805 0l0 66.20471l-139.74805 0z"/><path id="path119" fill="#fff" fill-rule="nonzero" d="m618.1774 240.56004l-11.046875 0l0 -2.1875l5.21875 -5.5625q1.0625 -1.171875 1.578125 -2.046875q0.515625 -0.875 0.515625 -1.65625q0 -1.0625 -0.546875 -1.671875q-0.53125 -0.625 -1.546875 -0.625q-1.078125 0 -1.703125 0.75q-0.625 0.75 -0.625 1.953125l-3.203125 0q0 -1.46875 0.6875 -2.6875q0.703125 -1.21875 1.984375 -1.90625q1.296875 -0.6875 2.921875 -0.6875q2.484375 0 3.859375 1.203125q1.375 1.1875 1.375 3.359375q0 1.203125 -0.625 2.4375q-0.609375 1.234375 -2.109375 2.890625l-3.671875 3.859375l6.9375 0l0 2.578125z"/><path id="path121" fill="#999" fill-rule="evenodd" d="m542.6621 274.5964l139.74805 0l0 66.20471l-139.74805 0z"/><path id="path123" fill-rule="evenodd" stroke="#434343" stroke-linecap="butt" stroke-linejoin="round" stroke-width="1" d="m542.6621 274.5964l139.74805 0l0 66.20471l-139.74805 0z"/><path id="path125" fill="#fff" fill-rule="nonzero" d="m610.38055 306.49002l1.703125 0q1.21875 0 1.796875 -0.609375q0.59375 -0.609375 0.59375 -1.609375q0 -0.984375 -0.578125 -1.515625q-0.578125 -0.546875 -1.59375 -0.546875q-0.921875 0 -1.546875 0.5q-0.609375 0.5 -0.609375 1.3125l-3.203125 0q0 -1.265625 0.671875 -2.265625q0.6875 -1.0 1.90625 -1.5625q1.234375 -0.5625 2.703125 -0.5625q2.546875 0 4.0 1.21875q1.453125 1.21875 1.453125 3.375q0 1.109375 -0.6875 2.046875q-0.671875 0.921875 -1.765625 1.40625q1.359375 0.5 2.03125 1.46875q0.671875 0.96875 0.671875 2.296875q0 2.140625 -1.5625 3.4375q-1.5625 1.296875 -4.140625 1.296875q-2.421875 0 -3.953125 -1.265625q-1.53125 -1.28125 -1.53125 -3.359375l3.203125 0q0 0.90625 0.671875 1.484375q0.6875 0.5625 1.6875 0.5625q1.140625 0 1.78125 -0.59375q0.640625 -0.609375 0.640625 -1.609375q0 -2.40625 -2.640625 -2.40625l-1.703125 0l0 -2.5z"/><path id="path127" fill="#999" fill-rule="evenodd" d="m542.6621 349.99512l139.74805 0l0 66.20471l-139.74805 0z"/><path id="path129" fill-rule="evenodd" stroke="#434343" stroke-linecap="butt" stroke-linejoin="round" stroke-width="1" d="m542.6621 349.99512l139.74805 0l0 66.20471l-139.74805 0z"/><path id="path131" fill="#fff" fill-rule="nonzero" d="m616.5837 385.29498l1.828125 0l0 2.578125l-1.828125 0l0 3.484375l-3.1875 0l0 -3.484375l-6.609375 0l-0.140625 -2.015625l6.71875 -10.609375l3.21875 0l0 10.046875zm-6.75 0l3.5625 0l0 -5.6875l-0.21875 0.359375l-3.34375 5.328125z"/><path id="path133" fill="#999" fill-rule="evenodd" d="m542.6621 425.39407l139.74805 0l0 66.20471l-139.74805 0z"/><path id="path135" fill-rule="evenodd" stroke="#434343" stroke-linecap="butt" stroke-linejoin="round" stroke-width="1" d="m542.6621 425.39407l139.74805 0l0 66.20471l-139.74805 0z"/><path id="path137" fill="#fff" fill-rule="nonzero" d="m607.6149 458.83456l0.921875 -8.1875l9.03125 0l0 2.671875l-6.40625 0l-0.40625 3.453125q1.140625 -0.609375 2.421875 -0.609375q2.3125 0 3.609375 1.4375q1.3125 1.421875 1.3125 3.984375q0 1.5625 -0.671875 2.796875q-0.65625 1.234375 -1.890625 1.921875q-1.21875 0.671875 -2.890625 0.671875q-1.453125 0 -2.703125 -0.59375q-1.25 -0.59375 -1.984375 -1.65625q-0.71875 -1.078125 -0.765625 -2.453125l3.171875 0q0.09375 1.015625 0.6875 1.578125q0.609375 0.546875 1.59375 0.546875q1.078125 0 1.65625 -0.78125q0.59375 -0.78125 0.59375 -2.203125q0 -1.375 -0.671875 -2.09375q-0.671875 -0.734375 -1.921875 -0.734375q-1.125 0 -1.84375 0.59375l-0.3125 0.28125l-2.53125 -0.625z"/><path id="path139" fill="#d9d9d9" fill-rule="evenodd" d="m276.5466 123.79897l139.74805 0l0 66.204735l-139.74805 0z"/><path id="path141" fill-rule="evenodd" stroke="#fff" stroke-linecap="butt" stroke-linejoin="round" stroke-width="1" d="m276.5466 123.79897l139.74805 0l0 66.204735l-139.74805 0z"/><path id="path143" fill="#000" fill-rule="nonzero" d="m321.87027 158.44383l0 5.9375l-2.0 0l0 -15.15625l5.59375 0q2.484375 0 3.890625 1.265625q1.40625 1.265625 1.40625 3.359375q0 2.203125 -1.375 3.40625q-1.375 1.1875 -3.953125 1.1875l-3.5625 0zm0 -1.640625l3.59375 0q1.59375 0 2.453125 -0.75q0.859375 -0.75 0.859375 -2.1875q0 -1.34375 -0.859375 -2.15625q-0.859375 -0.8125 -2.34375 -0.84375l-3.703125 0l0 5.9375zm16.595673 -1.96875q-0.4375 -0.0625 -0.953125 -0.0625q-1.890625 0 -2.5625 1.609375l0 8.0l-1.9375 0l0 -11.265625l1.875 0l0.03125 1.296875q0.953125 -1.5 2.6875 -1.5q0.5625 0 0.859375 0.140625l0 1.78125zm1.055542 3.8125q0 -1.65625 0.640625 -2.984375q0.65625 -1.328125 1.8125 -2.03125q1.171875 -0.71875 2.65625 -0.71875q2.296875 0 3.71875 1.59375q1.421875 1.578125 1.421875 4.234375l0 0.125q0 1.65625 -0.625 2.96875q-0.625 1.296875 -1.796875 2.03125q-1.171875 0.71875 -2.703125 0.71875q-2.28125 0 -3.703125 -1.59375q-1.421875 -1.59375 -1.421875 -4.21875l0 -0.125zm1.9375 0.21875q0 1.875 0.859375 3.015625q0.875 1.140625 2.328125 1.140625q1.46875 0 2.328125 -1.15625q0.875 -1.15625 0.875 -3.21875q0 -1.859375 -0.890625 -3.0q-0.875 -1.15625 -2.328125 -1.15625q-1.421875 0 -2.296875 1.140625q-0.875 1.125 -0.875 3.234375zm10.257446 -0.21875q0 -2.59375 1.234375 -4.15625q1.234375 -1.578125 3.21875 -1.578125q1.984375 0 3.140625 1.34375l0 -5.875l1.921875 0l0 16.0l-1.765625 0l-0.09375 -1.203125q-1.15625 1.40625 -3.21875 1.40625q-1.96875 0 -3.203125 -1.59375q-1.234375 -1.609375 -1.234375 -4.1875l0 -0.15625zm1.9375 0.21875q0 1.921875 0.78125 3.015625q0.796875 1.078125 2.1875 1.078125q1.84375 0 2.6875 -1.65625l0 -5.171875q-0.875 -1.59375 -2.65625 -1.59375q-1.421875 0 -2.21875 1.09375q-0.78125 1.09375 -0.78125 3.234375zm16.700195 5.515625l-1.9375 0l0 -12.84375l-3.890625 1.4375l0 -1.75l5.53125 -2.078125l0.296875 0l0 15.234375z"/><path id="path145" fill="#d9d9d9" fill-rule="evenodd" d="m276.5466 199.1977l139.74805 0l0 66.20471l-139.74805 0z"/><path id="path147" fill-rule="evenodd" stroke="#fff" stroke-linecap="butt" stroke-linejoin="round" stroke-width="1" d="m276.5466 199.1977l139.74805 0l0 66.20471l-139.74805 0z"/><path id="path149" fill="#000" fill-rule="nonzero" d="m321.87027 233.84254l0 5.9375l-2.0 0l0 -15.15625l5.59375 0q2.484375 0 3.890625 1.265625q1.40625 1.265625 1.40625 3.359375q0 2.203125 -1.375 3.40625q-1.375 1.1875 -3.953125 1.1875l-3.5625 0zm0 -1.640625l3.59375 0q1.59375 0 2.453125 -0.75q0.859375 -0.75 0.859375 -2.1875q0 -1.34375 -0.859375 -2.15625q-0.859375 -0.8125 -2.34375 -0.84375l-3.703125 0l0 5.9375zm16.595673 -1.96875q-0.4375 -0.0625 -0.953125 -0.0625q-1.890625 0 -2.5625 1.609375l0 8.0l-1.9375 0l0 -11.265625l1.875 0l0.03125 1.296875q0.953125 -1.5 2.6875 -1.5q0.5625 0 0.859375 0.140625l0 1.78125zm1.055542 3.8125q0 -1.65625 0.640625 -2.984375q0.65625 -1.328125 1.8125 -2.03125q1.171875 -0.71875 2.65625 -0.71875q2.296875 0 3.71875 1.59375q1.421875 1.578125 1.421875 4.234375l0 0.125q0 1.65625 -0.625 2.96875q-0.625 1.296875 -1.796875 2.03125q-1.171875 0.71875 -2.703125 0.71875q-2.28125 0 -3.703125 -1.59375q-1.421875 -1.59375 -1.421875 -4.21875l0 -0.125zm1.9375 0.21875q0 1.875 0.859375 3.015625q0.875 1.140625 2.328125 1.140625q1.46875 0 2.328125 -1.15625q0.875 -1.15625 0.875 -3.21875q0 -1.859375 -0.890625 -3.0q-0.875 -1.15625 -2.328125 -1.15625q-1.421875 0 -2.296875 1.140625q-0.875 1.125 -0.875 3.234375zm10.257446 -0.21875q0 -2.59375 1.234375 -4.15625q1.234375 -1.578125 3.21875 -1.578125q1.984375 0 3.140625 1.34375l0 -5.875l1.921875 0l0 16.0l-1.765625 0l-0.09375 -1.203125q-1.15625 1.40625 -3.21875 1.40625q-1.96875 0 -3.203125 -1.59375q-1.234375 -1.609375 -1.234375 -4.1875l0 -0.15625zm1.9375 0.21875q0 1.921875 0.78125 3.015625q0.796875 1.078125 2.1875 1.078125q1.84375 0 2.6875 -1.65625l0 -5.171875q-0.875 -1.59375 -2.65625 -1.59375q-1.421875 0 -2.21875 1.09375q-0.78125 1.09375 -0.78125 3.234375zm20.293945 5.515625l-9.921875 0l0 -1.390625l5.25 -5.828125q1.15625 -1.328125 1.59375 -2.15625q0.453125 -0.828125 0.453125 -1.703125q0 -1.1875 -0.71875 -1.9375q-0.71875 -0.765625 -1.921875 -0.765625q-1.4375 0 -2.234375 0.8125q-0.796875 0.8125 -0.796875 2.28125l-1.921875 0q0 -2.09375 1.34375 -3.390625q1.359375 -1.296875 3.609375 -1.296875q2.125 0 3.34375 1.109375q1.234375 1.109375 1.234375 2.953125q0 2.234375 -2.859375 5.328125l-4.0625 4.40625l7.609375 0l0 1.578125z"/><path id="path151" fill="#d9d9d9" fill-rule="evenodd" d="m276.5466 274.5964l139.74805 0l0 66.20471l-139.74805 0z"/><path id="path153" fill-rule="evenodd" stroke="#fff" stroke-linecap="butt" stroke-linejoin="round" stroke-width="1" d="m276.5466 274.5964l139.74805 0l0 66.20471l-139.74805 0z"/><path id="path155" fill="#000" fill-rule="nonzero" d="m321.87027 309.24127l0 5.9375l-2.0 0l0 -15.15625l5.59375 0q2.484375 0 3.890625 1.265625q1.40625 1.265625 1.40625 3.359375q0 2.203125 -1.375 3.40625q-1.375 1.1875 -3.953125 1.1875l-3.5625 0zm0 -1.640625l3.59375 0q1.59375 0 2.453125 -0.75q0.859375 -0.75 0.859375 -2.1875q0 -1.34375 -0.859375 -2.15625q-0.859375 -0.8125 -2.34375 -0.84375l-3.703125 0l0 5.9375zm16.595673 -1.96875q-0.4375 -0.0625 -0.953125 -0.0625q-1.890625 0 -2.5625 1.609375l0 8.0l-1.9375 0l0 -11.265625l1.875 0l0.03125 1.296875q0.953125 -1.5 2.6875 -1.5q0.5625 0 0.859375 0.140625l0 1.78125zm1.055542 3.8125q0 -1.65625 0.640625 -2.984375q0.65625 -1.328125 1.8125 -2.03125q1.171875 -0.71875 2.65625 -0.71875q2.296875 0 3.71875 1.59375q1.421875 1.578125 1.421875 4.234375l0 0.125q0 1.65625 -0.625 2.96875q-0.625 1.296875 -1.796875 2.03125q-1.171875 0.71875 -2.703125 0.71875q-2.28125 0 -3.703125 -1.59375q-1.421875 -1.59375 -1.421875 -4.21875l0 -0.125zm1.9375 0.21875q0 1.875 0.859375 3.015625q0.875 1.140625 2.328125 1.140625q1.46875 0 2.328125 -1.15625q0.875 -1.15625 0.875 -3.21875q0 -1.859375 -0.890625 -3.0q-0.875 -1.15625 -2.328125 -1.15625q-1.421875 0 -2.296875 1.140625q-0.875 1.125 -0.875 3.234375zm10.257446 -0.21875q0 -2.59375 1.234375 -4.15625q1.234375 -1.578125 3.21875 -1.578125q1.984375 0 3.140625 1.34375l0 -5.875l1.921875 0l0 16.0l-1.765625 0l-0.09375 -1.203125q-1.15625 1.40625 -3.21875 1.40625q-1.96875 0 -3.203125 -1.59375q-1.234375 -1.609375 -1.234375 -4.1875l0 -0.15625zm1.9375 0.21875q0 1.921875 0.78125 3.015625q0.796875 1.078125 2.1875 1.078125q1.84375 0 2.6875 -1.65625l0 -5.171875q-0.875 -1.59375 -2.65625 -1.59375q-1.421875 0 -2.21875 1.09375q-0.78125 1.09375 -0.78125 3.234375zm13.168945 -3.0l1.453125 0q1.359375 -0.03125 2.140625 -0.71875q0.78125 -0.703125 0.78125 -1.890625q0 -2.65625 -2.65625 -2.65625q-1.25 0 -2.0 0.71875q-0.734375 0.703125 -0.734375 1.875l-1.9375 0q0 -1.796875 1.3125 -2.984375q1.328125 -1.203125 3.359375 -1.203125q2.140625 0 3.359375 1.140625q1.21875 1.140625 1.21875 3.15625q0 0.984375 -0.640625 1.921875q-0.640625 0.921875 -1.734375 1.375q1.25 0.390625 1.921875 1.3125q0.6875 0.921875 0.6875 2.234375q0 2.046875 -1.34375 3.25q-1.328125 1.1875 -3.46875 1.1875q-2.125 0 -3.46875 -1.15625q-1.328125 -1.15625 -1.328125 -3.046875l1.9375 0q0 1.203125 0.78125 1.921875q0.78125 0.71875 2.09375 0.71875q1.390625 0 2.125 -0.734375q0.75 -0.734375 0.75 -2.09375q0 -1.328125 -0.8125 -2.03125q-0.8125 -0.703125 -2.34375 -0.734375l-1.453125 0l0 -1.5625z"/><path id="path157" fill="#d9d9d9" fill-rule="evenodd" d="m276.5466 349.99512l139.74805 0l0 66.20471l-139.74805 0z"/><path id="path159" fill-rule="evenodd" stroke="#fff" stroke-linecap="butt" stroke-linejoin="round" stroke-width="1" d="m276.5466 349.99512l139.74805 0l0 66.20471l-139.74805 0z"/><path id="path161" fill="#000" fill-rule="nonzero" d="m321.87027 384.63998l0 5.9375l-2.0 0l0 -15.15625l5.59375 0q2.484375 0 3.890625 1.265625q1.40625 1.265625 1.40625 3.359375q0 2.203125 -1.375 3.40625q-1.375 1.1875 -3.953125 1.1875l-3.5625 0zm0 -1.640625l3.59375 0q1.59375 0 2.453125 -0.75q0.859375 -0.75 0.859375 -2.1875q0 -1.34375 -0.859375 -2.15625q-0.859375 -0.8125 -2.34375 -0.84375l-3.703125 0l0 5.9375zm16.595673 -1.96875q-0.4375 -0.0625 -0.953125 -0.0625q-1.890625 0 -2.5625 1.609375l0 8.0l-1.9375 0l0 -11.265625l1.875 0l0.03125 1.296875q0.953125 -1.5 2.6875 -1.5q0.5625 0 0.859375 0.140625l0 1.78125zm1.055542 3.8125q0 -1.65625 0.640625 -2.984375q0.65625 -1.328125 1.8125 -2.03125q1.171875 -0.71875 2.65625 -0.71875q2.296875 0 3.71875 1.59375q1.421875 1.578125 1.421875 4.234375l0 0.125q0 1.65625 -0.625 2.96875q-0.625 1.296875 -1.796875 2.03125q-1.171875 0.71875 -2.703125 0.71875q-2.28125 0 -3.703125 -1.59375q-1.421875 -1.59375 -1.421875 -4.21875l0 -0.125zm1.9375 0.21875q0 1.875 0.859375 3.015625q0.875 1.140625 2.328125 1.140625q1.46875 0 2.328125 -1.15625q0.875 -1.15625 0.875 -3.21875q0 -1.859375 -0.890625 -3.0q-0.875 -1.15625 -2.328125 -1.15625q-1.421875 0 -2.296875 1.140625q-0.875 1.125 -0.875 3.234375zm10.257446 -0.21875q0 -2.59375 1.234375 -4.15625q1.234375 -1.578125 3.21875 -1.578125q1.984375 0 3.140625 1.34375l0 -5.875l1.921875 0l0 16.0l-1.765625 0l-0.09375 -1.203125q-1.15625 1.40625 -3.21875 1.40625q-1.96875 0 -3.203125 -1.59375q-1.234375 -1.609375 -1.234375 -4.1875l0 -0.15625zm1.9375 0.21875q0 1.921875 0.78125 3.015625q0.796875 1.078125 2.1875 1.078125q1.84375 0 2.6875 -1.65625l0 -5.171875q-0.875 -1.59375 -2.65625 -1.59375q-1.421875 0 -2.21875 1.09375q-0.78125 1.09375 -0.78125 3.234375zm18.49707 0.421875l2.109375 0l0 1.578125l-2.109375 0l0 3.515625l-1.9375 0l0 -3.515625l-6.90625 0l0 -1.140625l6.796875 -10.5l2.046875 0l0 10.0625zm-6.65625 0l4.71875 0l0 -7.4375l-0.21875 0.421875l-4.5 7.015625z"/><path id="path163" fill="#d9d9d9" fill-rule="evenodd" d="m276.5466 425.39407l139.74805 0l0 66.20471l-139.74805 0z"/><path id="path165" fill-rule="evenodd" stroke="#fff" stroke-linecap="butt" stroke-linejoin="round" stroke-width="1" d="m276.5466 425.39407l139.74805 0l0 66.20471l-139.74805 0z"/><path id="path167" fill="#000" fill-rule="nonzero" d="m321.87027 460.03894l0 5.9375l-2.0 0l0 -15.15625l5.59375 0q2.484375 0 3.890625 1.265625q1.40625 1.265625 1.40625 3.359375q0 2.203125 -1.375 3.40625q-1.375 1.1875 -3.953125 1.1875l-3.5625 0zm0 -1.640625l3.59375 0q1.59375 0 2.453125 -0.75q0.859375 -0.75 0.859375 -2.1875q0 -1.34375 -0.859375 -2.15625q-0.859375 -0.8125 -2.34375 -0.84375l-3.703125 0l0 5.9375zm16.595673 -1.96875q-0.4375 -0.0625 -0.953125 -0.0625q-1.890625 0 -2.5625 1.609375l0 8.0l-1.9375 0l0 -11.265625l1.875 0l0.03125 1.296875q0.953125 -1.5 2.6875 -1.5q0.5625 0 0.859375 0.140625l0 1.78125zm1.055542 3.8125q0 -1.65625 0.640625 -2.984375q0.65625 -1.328125 1.8125 -2.03125q1.171875 -0.71875 2.65625 -0.71875q2.296875 0 3.71875 1.59375q1.421875 1.578125 1.421875 4.234375l0 0.125q0 1.65625 -0.625 2.96875q-0.625 1.296875 -1.796875 2.03125q-1.171875 0.71875 -2.703125 0.71875q-2.28125 0 -3.703125 -1.59375q-1.421875 -1.59375 -1.421875 -4.21875l0 -0.125zm1.9375 0.21875q0 1.875 0.859375 3.015625q0.875 1.140625 2.328125 1.140625q1.46875 0 2.328125 -1.15625q0.875 -1.15625 0.875 -3.21875q0 -1.859375 -0.890625 -3.0q-0.875 -1.15625 -2.328125 -1.15625q-1.421875 0 -2.296875 1.140625q-0.875 1.125 -0.875 3.234375zm10.257446 -0.21875q0 -2.59375 1.234375 -4.15625q1.234375 -1.578125 3.21875 -1.578125q1.984375 0 3.140625 1.34375l0 -5.875l1.921875 0l0 16.0l-1.765625 0l-0.09375 -1.203125q-1.15625 1.40625 -3.21875 1.40625q-1.96875 0 -3.203125 -1.59375q-1.234375 -1.609375 -1.234375 -4.1875l0 -0.15625zm1.9375 0.21875q0 1.921875 0.78125 3.015625q0.796875 1.078125 2.1875 1.078125q1.84375 0 2.6875 -1.65625l0 -5.171875q-0.875 -1.59375 -2.65625 -1.59375q-1.421875 0 -2.21875 1.09375q-0.78125 1.09375 -0.78125 3.234375zm11.24707 -2.09375l0.78125 -7.546875l7.765625 0l0 1.78125l-6.140625 0l-0.453125 4.125q1.109375 -0.65625 2.53125 -0.65625q2.078125 0 3.28125 1.375q1.21875 1.359375 1.21875 3.703125q0 2.34375 -1.265625 3.6875q-1.25 1.34375 -3.53125 1.34375q-2.0 0 -3.28125 -1.109375q-1.265625 -1.109375 -1.4375 -3.078125l1.8125 0q0.1875 1.296875 0.9375 1.96875q0.75 0.65625 1.96875 0.65625q1.34375 0 2.109375 -0.921875q0.765625 -0.921875 0.765625 -2.53125q0 -1.515625 -0.828125 -2.4375q-0.828125 -0.921875 -2.203125 -0.921875q-1.25 0 -1.96875 0.546875l-0.515625 0.421875l-1.546875 -0.40625z"/><path id="path169" fill="#fce5cd" fill-opacity=".12" fill-rule="evenodd" d="m112.11024 127.937294l0 0c0 -7.8712997 6.380951 -14.252258 14.252251 -14.252258l707.275 0c3.7799072 0 7.4050293 1.5015793 10.077881 4.1743927c2.6727905 2.6728134 4.1743774 6.2979355 4.1743774 10.077866l0 57.0073c0 7.8713074 -6.3809814 14.252258 -14.252258 14.252258l-707.275 0c-7.8712997 0 -14.252251 -6.380951 -14.252251 -14.252258z"/><path id="path171" fill-rule="evenodd" stroke="#e69138" stroke-dasharray="12 9" stroke-linecap="butt" stroke-linejoin="round" stroke-width="3" d="m112.11024 127.937294l0 0c0 -7.8712997 6.380951 -14.252258 14.252251 -14.252258l707.275 0c3.7799072 0 7.4050293 1.5015793 10.077881 4.1743927c2.6727905 2.6728134 4.1743774 6.2979355 4.1743774 10.077866l0 57.0073c0 7.8713074 -6.3809814 14.252258 -14.252258 14.252258l-707.275 0c-7.8712997 0 -14.252251 -6.380951 -14.252251 -14.252258z"/><path id="path173" fill="#fce5cd" fill-opacity=".12" fill-rule="evenodd" d="m112.11024 354.59348l0 0c0 -7.8713074 6.380951 -14.252258 14.252251 -14.252258l707.275 0c3.7799072 0 7.4050293 1.5015564 10.077881 4.1743774c2.6727905 2.672821 4.1743774 6.297943 4.1743774 10.077881l0 57.007294c0 7.8713074 -6.3809814 14.252258 -14.252258 14.252258l-707.275 0c-7.8712997 0 -14.252251 -6.380951 -14.252251 -14.252258z"/><path id="path175" fill-rule="evenodd" stroke="#e69138" stroke-dasharray="12 9" stroke-linecap="butt" stroke-linejoin="round" stroke-width="3" d="m112.11024 354.59348l0 0c0 -7.8713074 6.380951 -14.252258 14.252251 -14.252258l707.275 0c3.7799072 0 7.4050293 1.5015564 10.077881 4.1743774c2.6727905 2.672821 4.1743774 6.297943 4.1743774 10.077881l0 57.007294c0 7.8713074 -6.3809814 14.252258 -14.252258 14.252258l-707.275 0c-7.8712997 0 -14.252251 -6.380951 -14.252251 -14.252258z"/></g></svg>