<svg xmlns="http://www.w3.org/2000/svg" xmlns:svg="http://www.w3.org/2000/svg" id="svg393" fill="none" stroke="none" stroke-linecap="square" stroke-miterlimit="10" version="1.1" viewBox="0 0 960 540"><metadata id="metadata399"/><clipPath id="ge5cd28bdd1_0_1002.0"><path id="path2" d="m0 0l960.0 0l0 540.0l-960.0 0l0 -540.0z" clip-rule="nonzero"/></clipPath><g id="g391" clip-path="url(#ge5cd28bdd1_0_1002.0)"><path id="path5" fill="#fff" fill-rule="evenodd" d="m0 0l960.0 0l0 540.0l-960.0 0z"/><path id="path7" fill="#999" fill-rule="evenodd" d="m13.396328 114.61549l83.74803 0l0 39.685043l-83.74803 0z"/><path id="path9" fill-rule="evenodd" stroke="#434343" stroke-linecap="butt" stroke-linejoin="round" stroke-width="1" d="m13.396328 114.61549l83.74803 0l0 39.685043l-83.74803 0z"/><path id="path11" fill="#fff" fill-rule="nonzero" d="m43.878613 137.4224l-1.078125 1.078125l0 3.4375l-3.015625 0l0 -16.000008l3.015625 0l0 8.859383l0.578125 -0.75l2.890625 -3.375l3.609375 0l-4.078125 4.6875l4.421875 6.578125l-3.453125 0l-2.890625 -4.515625zm12.278473 4.71875q-2.484375 0 -4.046875 -1.515625q-1.546875 -1.515625 -1.546875 -4.046875l0 -0.296875q0 -1.703125 0.65625 -3.03125q0.65625 -1.34375 1.859375 -2.0625q1.203125 -0.71875 2.75 -0.71875q2.3125 0 3.625 1.453125q1.328125 1.453125 1.328125 4.125l0 1.234375l-7.171875 0q0.15625 1.109375 0.890625 1.78125q0.734375 0.65625 1.859375 0.65625q1.734375 0 2.71875 -1.265625l1.46875 1.65625q-0.671875 0.96875 -1.828125 1.5q-1.15625 0.53125 -2.5625 0.53125zm-0.34375 -9.25q-0.890625 0 -1.453125 0.609375q-0.5625 0.609375 -0.71875 1.734375l4.1875 0l0 -0.25q-0.015625 -1.0 -0.546875 -1.546875q-0.515625 -0.546875 -1.46875 -0.546875zm10.752392 4.78125l2.09375 -7.0l3.21875 0l-4.53125 13.015625l-0.25 0.59375q-1.0 2.203125 -3.3281212 2.203125q-0.65625 0 -1.328125 -0.1875l0 -2.28125l0.453125 0q0.859375 0 1.2812462 -0.265625q0.421875 -0.25 0.65625 -0.859375l0.359375 -0.921875l-3.9531212 -11.296875l3.2343712 0l2.09375 7.0z"/><path id="path13" fill="#ffe599" fill-rule="evenodd" d="m13.396328 159.79587l83.74803 0l0 39.685043l-83.74803 0z"/><path id="path15" fill-rule="evenodd" stroke="#fff" stroke-linecap="butt" stroke-linejoin="round" stroke-width="1" d="m13.396328 159.79587l83.74803 0l0 39.685043l-83.74803 0z"/><path id="path17" fill="#000" fill-rule="nonzero" d="m58.454334 183.16525l-6.359375 0l-1.421875 3.953125l-2.0625 0l5.78125 -15.15625l1.75 0l5.796875 15.15625l-2.046875 0l-1.4375 -3.953125zm-5.75 -1.65625l5.15625 0l-2.59375 -7.078125l-2.5625 7.078125z"/><path id="path19" fill="#93c47d" fill-rule="evenodd" d="m13.396328 204.97624l83.74803 0l0 39.685028l-83.74803 0z"/><path id="path21" fill-rule="evenodd" stroke="#fff" stroke-linecap="butt" stroke-linejoin="round" stroke-width="1" d="m13.396328 204.97624l83.74803 0l0 39.685028l-83.74803 0z"/><path id="path23" fill="#000" fill-rule="nonzero" d="m50.39696 232.29875l0 -15.15625l4.953125 0q2.46875 0 3.703125 1.015625q1.25 1.015625 1.25 3.015625q0 1.0625 -0.609375 1.890625q-0.59375 0.8125 -1.640625 1.25q1.234375 0.34375 1.9375 1.3125q0.71875 0.96875 0.71875 2.296875q0 2.046875 -1.328125 3.21875q-1.3125 1.15625 -3.734375 1.15625l-5.25 0zm2.0 -7.09375l0 5.453125l3.296875 0q1.390625 0 2.203125 -0.71875q0.8125 -0.71875 0.8125 -2.0q0 -2.734375 -2.984375 -2.734375l-3.328125 0zm0 -1.609375l3.015625 0q1.3125 0 2.09375 -0.65625q0.796875 -0.65625 0.796875 -1.765625q0 -1.25 -0.734375 -1.8125q-0.734375 -0.578125 -2.21875 -0.578125l-2.953125 0l0 4.8125z"/><path id="path25" fill="#ead1dc" fill-rule="evenodd" d="m13.396328 250.1566l83.74803 0l0 39.685043l-83.74803 0z"/><path id="path27" fill-rule="evenodd" stroke="#fff" stroke-linecap="butt" stroke-linejoin="round" stroke-width="1" d="m13.396328 250.1566l83.74803 0l0 39.685043l-83.74803 0z"/><path id="path29" fill="#000" fill-rule="nonzero" d="m61.235577 272.66663q-0.28125 2.40625 -1.78125 3.71875q-1.484375 1.296875 -3.953125 1.296875q-2.6875 0 -4.3125 -1.921875q-1.625 -1.921875 -1.625 -5.15625l0 -1.453125q0 -2.125 0.75 -3.71875q0.765625 -1.609375 2.140625 -2.46875q1.390625 -0.859375 3.21875 -0.859375q2.421875 0 3.875 1.359375q1.453125 1.34375 1.6875 3.71875l-2.0 0q-0.265625 -1.796875 -1.140625 -2.609375q-0.859375 -0.8125 -2.421875 -0.8125q-1.921875 0 -3.015625 1.421875q-1.078125 1.40625 -1.078125 4.015625l0 1.46875q0 2.46875 1.03125 3.9375q1.03125 1.453125 2.890625 1.453125q1.65625 0 2.546875 -0.75q0.890625 -0.765625 1.1875 -2.640625l2.0 0z"/><path id="path31" fill="#ffe599" fill-rule="evenodd" d="m13.396328 295.33698l83.74803 0l0 39.68506l-83.74803 0z"/><path id="path33" fill-rule="evenodd" stroke="#fff" stroke-linecap="butt" stroke-linejoin="round" stroke-width="1" d="m13.396328 295.33698l83.74803 0l0 39.68506l-83.74803 0z"/><path id="path35" fill="#000" fill-rule="nonzero" d="m58.454334 318.7064l-6.359375 0l-1.421875 3.953125l-2.0625 0l5.78125 -15.15625l1.75 0l5.796875 15.15625l-2.046875 0l-1.4375 -3.953125zm-5.75 -1.65625l5.15625 0l-2.59375 -7.078125l-2.5625 7.078125z"/><path id="path37" fill="#93c47d" fill-rule="evenodd" d="m13.396328 340.5175l83.74803 0l0 39.68506l-83.74803 0z"/><path id="path39" fill-rule="evenodd" stroke="#fff" stroke-linecap="butt" stroke-linejoin="round" stroke-width="1" d="m13.396328 340.5175l83.74803 0l0 39.68506l-83.74803 0z"/><path id="path41" fill="#000" fill-rule="nonzero" d="m43.050274 351.65253l1.109375 0.75q-0.96875 1.3125 -1.0 2.84375l0 1.421875l-1.921875 0l0 -1.203125q0 -1.0625 0.5 -2.109375q0.515625 -1.046875 1.3125 -1.703125zm3.28125 0l1.109375 0.75q-0.96875 1.3125 -1.0 2.84375l0 1.421875l-1.921875 0l0 -1.203125q0 -1.0625 0.5 -2.109375q0.515625 -1.046875 1.3125 -1.703125zm2.8679504 15.171875q0 -0.5 0.296875 -0.828125q0.296875 -0.328125 0.890625 -0.328125q0.59375 0 0.890625 0.328125q0.3125 0.328125 0.3125 0.828125q0 0.484375 -0.3125 0.8125q-0.296875 0.3125 -0.890625 0.3125q-0.59375 0 -0.890625 -0.3125q-0.296875 -0.328125 -0.296875 -0.8125zm5.61322 0q0 -0.5 0.296875 -0.828125q0.296875 -0.328125 0.890625 -0.328125q0.59375 0 0.890625 0.328125q0.3125 0.328125 0.3125 0.828125q0 0.484375 -0.3125 0.8125q-0.296875 0.3125 -0.890625 0.3125q-0.59375 0 -0.890625 -0.3125q-0.296875 -0.328125 -0.296875 -0.8125zm5.61322 0q0 -0.5 0.296875 -0.828125q0.296875 -0.328125 0.890625 -0.328125q0.59375 0 0.890625 0.328125q0.3125 0.328125 0.3125 0.828125q0 0.484375 -0.3125 0.8125q-0.296875 0.3125 -0.890625 0.3125q-0.59375 0 -0.890625 -0.3125q-0.296875 -0.328125 -0.296875 -0.8125zm4.061138 -9.875l-1.0937462 -0.75q0.9687462 -1.359375 0.9999962 -2.859375l0 -1.5l1.90625 0l0 1.359375q-0.015625 1.046875 -0.515625 2.078125q-0.5 1.03125 -1.296875 1.671875zm3.203125 0l-1.09375 -0.75q0.96875 -1.359375 1.0 -2.859375l0 -1.5l1.90625 0l0 1.359375q-0.015625 1.046875 -0.515625 2.078125q-0.5 1.03125 -1.296875 1.671875z"/><path id="path43" fill="#93c47d" fill-rule="evenodd" d="m13.396328 340.5175l83.74803 0l0 39.68506l-83.74803 0z"/><path id="path45" fill-rule="evenodd" stroke="#fff" stroke-linecap="butt" stroke-linejoin="round" stroke-width="1" d="m13.396328 340.5175l83.74803 0l0 39.68506l-83.74803 0z"/><path id="path47" fill="#000" fill-rule="nonzero" d="m50.39696 367.84003l0 -15.15625l4.953125 0q2.46875 0 3.703125 1.015625q1.25 1.015625 1.25 3.015625q0 1.0625 -0.609375 1.890625q-0.59375 0.8125 -1.640625 1.25q1.234375 0.34375 1.9375 1.3125q0.71875 0.96875 0.71875 2.296875q0 2.046875 -1.328125 3.21875q-1.3125 1.15625 -3.734375 1.15625l-5.25 0zm2.0 -7.09375l0 5.453125l3.296875 0q1.390625 0 2.203125 -0.71875q0.8125 -0.71875 0.8125 -2.0q0 -2.734375 -2.984375 -2.734375l-3.328125 0zm0 -1.609375l3.015625 0q1.3125 0 2.09375 -0.65625q0.796875 -0.65625 0.796875 -1.765625q0 -1.25 -0.734375 -1.8125q-0.734375 -0.578125 -2.21875 -0.578125l-2.953125 0l0 4.8125z"/><path id="path49" fill="#999" fill-rule="evenodd" d="m109.39809 114.61549l83.74803 0l0 39.685043l-83.74803 0z"/><path id="path51" fill-rule="evenodd" stroke="#434343" stroke-linecap="butt" stroke-linejoin="round" stroke-width="1" d="m109.39809 114.61549l83.74803 0l0 39.685043l-83.74803 0z"/><path id="path53" fill="#fff" fill-rule="nonzero" d="m130.91266 136.21927q0 -2.640625 1.171875 -4.1875q1.1875 -1.5625 3.25 -1.5625q1.640625 0 2.71875 1.21875l0 -5.7500076l3.015625 0l0 16.000008l-2.71875 0l-0.140625 -1.203125q-1.125 1.40625 -2.90625 1.40625q-1.984375 0 -3.1875 -1.5625q-1.203125 -1.5625 -1.203125 -4.359375zm3.015625 0.21875q0 1.578125 0.546875 2.421875q0.546875 0.84375 1.609375 0.84375q1.390625 0 1.96875 -1.171875l0 -4.453125q-0.5625 -1.171875 -1.953125 -1.171875q-2.171875 0 -2.171875 3.53125zm16.002274 5.5q-0.203125 -0.40625 -0.296875 -1.015625q-1.09375 1.21875 -2.84375 1.21875q-1.65625 0 -2.75 -0.953125q-1.09375 -0.953125 -1.09375 -2.421875q0 -1.78125 1.328125 -2.734375q1.328125 -0.96875 3.84375 -0.984375l1.390625 0l0 -0.640625q0 -0.78125 -0.40625 -1.25q-0.40625 -0.46875 -1.265625 -0.46875q-0.765625 0 -1.203125 0.375q-0.421875 0.359375 -0.421875 0.984375l-3.015625 0q0 -0.96875 0.609375 -1.796875q0.609375 -0.84375 1.703125 -1.3125q1.109375 -0.46875 2.484375 -0.46875q2.078125 0 3.296875 1.046875q1.234375 1.03125 1.234375 2.9375l0 4.875q0.015625 1.609375 0.4375 2.4375l0 0.171875l-3.03125 0zm-2.484375 -2.09375q0.65625 0 1.21875 -0.296875q0.5625 -0.296875 0.84375 -0.796875l0 -1.9375l-1.125 0q-2.265625 0 -2.40625 1.5625l-0.015625 0.171875q0 0.5625 0.390625 0.9375q0.40625 0.359375 1.09375 0.359375zm10.997208 -11.937508l0 2.7656326l1.921875 0l0 2.203125l-1.921875 0l0 5.625q0 0.625 0.234375 0.90625q0.234375 0.265625 0.921875 0.265625q0.5 0 0.875 -0.078125l0 2.28125q-0.875 0.265625 -1.8125 0.265625q-3.171875 0 -3.234375 -3.1875l0 -6.078125l-1.640625 0l0 -2.203125l1.640625 0l0 -2.7656326l3.015625 0zm10.1284485 14.031258q-0.203125 -0.40625 -0.296875 -1.015625q-1.09375 1.21875 -2.84375 1.21875q-1.65625 0 -2.75 -0.953125q-1.09375 -0.953125 -1.09375 -2.421875q0 -1.78125 1.328125 -2.734375q1.328125 -0.96875 3.84375 -0.984375l1.390625 0l0 -0.640625q0 -0.78125 -0.40625 -1.25q-0.40625 -0.46875 -1.265625 -0.46875q-0.765625 0 -1.203125 0.375q-0.421875 0.359375 -0.421875 0.984375l-3.015625 0q0 -0.96875 0.609375 -1.796875q0.609375 -0.84375 1.703125 -1.3125q1.109375 -0.46875 2.484375 -0.46875q2.078125 0 3.296875 1.046875q1.234375 1.03125 1.234375 2.9375l0 4.875q0.015625 1.609375 0.4375 2.4375l0 0.171875l-3.03125 0zm-2.484375 -2.09375q0.65625 0 1.21875 -0.296875q0.5625 -0.296875 0.84375 -0.796875l0 -1.9375l-1.125 0q-2.265625 0 -2.40625 1.5625l-0.015625 0.171875q0 0.5625 0.390625 0.9375q0.40625 0.359375 1.09375 0.359375z"/><path id="path55" fill="#ffe599" fill-rule="evenodd" d="m109.39809 159.79587l83.74803 0l0 39.685043l-83.74803 0z"/><path id="path57" fill-rule="evenodd" stroke="#fff" stroke-linecap="butt" stroke-linejoin="round" stroke-width="1" d="m109.39809 159.79587l83.74803 0l0 39.685043l-83.74803 0z"/><path id="path59" fill="#000" fill-rule="nonzero" d="m152.87773 187.11838l-1.9375 0l0 -12.84375l-3.890625 1.4375l0 -1.75l5.53125 -2.078125l0.296875 0l0 15.234375z"/><path id="path61" fill="#93c47d" fill-rule="evenodd" d="m109.39809 204.97467l83.74803 0l0 39.685028l-83.74803 0z"/><path id="path63" fill-rule="evenodd" stroke="#fff" stroke-linecap="butt" stroke-linejoin="round" stroke-width="1" d="m109.39809 204.97467l83.74803 0l0 39.685028l-83.74803 0z"/><path id="path65" fill="#000" fill-rule="nonzero" d="m156.47148 232.29718l-9.921875 0l0 -1.390625l5.25 -5.828125q1.15625 -1.328125 1.59375 -2.15625q0.453125 -0.828125 0.453125 -1.703125q0 -1.1875 -0.71875 -1.9375q-0.71875 -0.765625 -1.921875 -0.765625q-1.4375 0 -2.234375 0.8125q-0.796875 0.8125 -0.796875 2.28125l-1.921875 0q0 -2.09375 1.34375 -3.390625q1.359375 -1.296875 3.609375 -1.296875q2.125 0 3.34375 1.109375q1.234375 1.109375 1.234375 2.953125q0 2.234375 -2.859375 5.328125l-4.0625 4.40625l7.609375 0l0 1.578125z"/><path id="path67" fill="#ead1dc" fill-rule="evenodd" d="m109.39809 250.15361l83.74803 0l0 39.685043l-83.74803 0z"/><path id="path69" fill-rule="evenodd" stroke="#fff" stroke-linecap="butt" stroke-linejoin="round" stroke-width="1" d="m109.39809 250.15361l83.74803 0l0 39.685043l-83.74803 0z"/><path id="path71" fill="#000" fill-rule="nonzero" d="m149.34648 268.9605l1.453125 0q1.359375 -0.03125 2.140625 -0.71875q0.78125 -0.703125 0.78125 -1.890625q0 -2.65625 -2.65625 -2.65625q-1.25 0 -2.0 0.71875q-0.734375 0.703125 -0.734375 1.875l-1.9375 0q0 -1.796875 1.3125 -2.984375q1.328125 -1.203125 3.359375 -1.203125q2.140625 0 3.359375 1.140625q1.21875 1.140625 1.21875 3.15625q0 0.984375 -0.640625 1.921875q-0.640625 0.921875 -1.734375 1.375q1.25 0.390625 1.921875 1.3125q0.6875 0.921875 0.6875 2.234375q0 2.046875 -1.34375 3.25q-1.328125 1.1875 -3.46875 1.1875q-2.125 0 -3.46875 -1.15625q-1.328125 -1.15625 -1.328125 -3.046875l1.9375 0q0 1.203125 0.78125 1.921875q0.78125 0.71875 2.09375 0.71875q1.390625 0 2.125 -0.734375q0.75 -0.734375 0.75 -2.09375q0 -1.328125 -0.8125 -2.03125q-0.8125 -0.703125 -2.34375 -0.734375l-1.453125 0l0 -1.5625z"/><path id="path73" fill="#ffe599" fill-rule="evenodd" d="m109.39809 295.3324l83.74803 0l0 39.68506l-83.74803 0z"/><path id="path75" fill-rule="evenodd" stroke="#fff" stroke-linecap="butt" stroke-linejoin="round" stroke-width="1" d="m109.39809 295.3324l83.74803 0l0 39.68506l-83.74803 0z"/><path id="path77" fill="#000" fill-rule="nonzero" d="m154.6746 317.5612l2.109375 0l0 1.578125l-2.109375 0l0 3.515625l-1.9375 0l0 -3.515625l-6.90625 0l0 -1.140625l6.796875 -10.5l2.046875 0l0 10.0625zm-6.65625 0l4.71875 0l0 -7.4375l-0.21875 0.421875l-4.5 7.015625z"/><path id="path79" fill="#93c47d" fill-rule="evenodd" d="m109.39809 340.51135l83.74803 0l0 39.685028l-83.74803 0z"/><path id="path81" fill-rule="evenodd" stroke="#fff" stroke-linecap="butt" stroke-linejoin="round" stroke-width="1" d="m109.39809 340.51135l83.74803 0l0 39.685028l-83.74803 0z"/><path id="path83" fill="#000" fill-rule="nonzero" d="m147.4246 360.2245l0.78125 -7.546875l7.765625 0l0 1.78125l-6.140625 0l-0.453125 4.125q1.109375 -0.65625 2.53125 -0.65625q2.078125 0 3.28125 1.375q1.21875 1.359375 1.21875 3.703125q0 2.34375 -1.265625 3.6875q-1.25 1.34375 -3.53125 1.34375q-2.0 0 -3.28125 -1.109375q-1.265625 -1.109375 -1.4375 -3.078125l1.8125 0q0.1875 1.296875 0.9375 1.96875q0.75 0.65625 1.96875 0.65625q1.34375 0 2.109375 -0.921875q0.765625 -0.921875 0.765625 -2.53125q0 -1.515625 -0.828125 -2.4375q-0.828125 -0.921875 -2.203125 -0.921875q-1.25 0 -1.96875 0.546875l-0.515625 0.421875l-1.546875 -0.40625z"/><path id="path85" fill="#ead1dc" fill-rule="evenodd" d="m13.396328 385.69867l83.74803 0l0 39.685028l-83.74803 0z"/><path id="path87" fill-rule="evenodd" stroke="#fff" stroke-linecap="butt" stroke-linejoin="round" stroke-width="1" d="m13.396328 385.69867l83.74803 0l0 39.685028l-83.74803 0z"/><path id="path89" fill="#000" fill-rule="nonzero" d="m61.235577 408.20868q-0.28125 2.40625 -1.78125 3.71875q-1.484375 1.296875 -3.953125 1.296875q-2.6875 0 -4.3125 -1.921875q-1.625 -1.921875 -1.625 -5.15625l0 -1.453125q0 -2.125 0.75 -3.71875q0.765625 -1.609375 2.140625 -2.46875q1.390625 -0.859375 3.21875 -0.859375q2.421875 0 3.875 1.359375q1.453125 1.34375 1.6875 3.71875l-2.0 0q-0.265625 -1.796875 -1.140625 -2.609375q-0.859375 -0.8125 -2.421875 -0.8125q-1.921875 0 -3.015625 1.421875q-1.078125 1.40625 -1.078125 4.015625l0 1.46875q0 2.46875 1.03125 3.9375q1.03125 1.453125 2.890625 1.453125q1.65625 0 2.546875 -0.75q0.890625 -0.765625 1.1875 -2.640625l2.0 0z"/><path id="path91" fill="#ead1dc" fill-rule="evenodd" d="m109.39809 385.69046l83.74803 0l0 39.685028l-83.74803 0z"/><path id="path93" fill-rule="evenodd" stroke="#fff" stroke-linecap="butt" stroke-linejoin="round" stroke-width="1" d="m109.39809 385.69046l83.74803 0l0 39.685028l-83.74803 0z"/><path id="path95" fill="#000" fill-rule="nonzero" d="m154.1121 397.8411l0 1.640625l-0.359375 0q-2.25 0.03125 -3.59375 1.328125q-1.328125 1.296875 -1.53125 3.625q1.203125 -1.375 3.265625 -1.375q1.984375 0 3.15625 1.40625q1.1875 1.390625 1.1875 3.59375q0 2.34375 -1.28125 3.75q-1.265625 1.40625 -3.40625 1.40625q-2.1875 0 -3.546875 -1.671875q-1.34375 -1.671875 -1.34375 -4.296875l0 -0.75q0 -4.171875 1.78125 -6.390625q1.796875 -2.21875 5.328125 -2.265625l0.34375 0zm-2.53125 6.828125q-1.0 0 -1.828125 0.59375q-0.828125 0.59375 -1.15625 1.484375l0 0.71875q0 1.875 0.84375 3.015625q0.84375 1.140625 2.109375 1.140625q1.296875 0 2.03125 -0.953125q0.75 -0.953125 0.75 -2.515625q0 -1.5625 -0.75 -2.515625q-0.75 -0.96875 -2.0 -0.96875z"/><path id="path97" fill="#999" fill-rule="evenodd" d="m284.6285 57.622047l69.63779 0l0 33.007874l-69.63779 0z"/><path id="path99" fill-rule="evenodd" stroke="#434343" stroke-linecap="butt" stroke-linejoin="round" stroke-width="1" d="m284.6285 57.622047l69.63779 0l0 33.007874l-69.63779 0z"/><path id="path101" fill="#fff" fill-rule="nonzero" d="m308.05566 77.090355l-1.078125 1.078125l0 3.4375l-3.015625 0l0 -16.0l3.015625 0l0 8.859375l0.578125 -0.75l2.890625 -3.375l3.609375 0l-4.078125 4.6875l4.421875 6.578125l-3.453125 0l-2.890625 -4.515625zm12.278473 4.71875q-2.484375 0 -4.046875 -1.515625q-1.546875 -1.515625 -1.546875 -4.046875l0 -0.296875q0 -1.703125 0.65625 -3.03125q0.65625 -1.34375 1.859375 -2.0625q1.203125 -0.71875 2.75 -0.71875q2.3125 0 3.625 1.453125q1.328125 1.453125 1.328125 4.125l0 1.234375l-7.171875 0q0.15625 1.109375 0.890625 1.78125q0.734375 0.65625 1.859375 0.65625q1.734375 0 2.71875 -1.265625l1.46875 1.65625q-0.671875 0.96875 -1.828125 1.5q-1.15625 0.53125 -2.5625 0.53125zm-0.34375 -9.25q-0.890625 0 -1.453125 0.609375q-0.5625 0.609375 -0.71875 1.734375l4.1875 0l0 -0.25q-0.015625 -1.0 -0.546875 -1.546875q-0.515625 -0.546875 -1.46875 -0.546875zm10.752411 4.78125l2.09375 -7.0l3.21875 0l-4.53125 13.015625l-0.25 0.59375q-1.0 2.203125 -3.328125 2.203125q-0.65625 0 -1.328125 -0.1875l0 -2.28125l0.453125 0q0.859375 0 1.28125 -0.265625q0.421875 -0.25 0.65625 -0.859375l0.359375 -0.921875l-3.953125 -11.296875l3.234375 0l2.09375 7.0z"/><path id="path103" fill="#ffe599" fill-rule="evenodd" d="m284.6285 95.73368l69.63779 0l0 33.007866l-69.63779 0z"/><path id="path105" fill-rule="evenodd" stroke="#fff" stroke-linecap="butt" stroke-linejoin="round" stroke-width="1" d="m284.6285 95.73368l69.63779 0l0 33.007866l-69.63779 0z"/><path id="path107" fill="#000" fill-rule="nonzero" d="m322.63138 115.76449l-6.359375 0l-1.421875 3.953125l-2.0625 0l5.78125 -15.15625l1.75 0l5.796875 15.15625l-2.046875 0l-1.4375 -3.953125zm-5.75 -1.65625l5.15625 0l-2.59375 -7.078125l-2.5625 7.078125z"/><path id="path109" fill="#ffe599" fill-rule="evenodd" d="m284.6285 133.0342l69.63779 0l0 33.007874l-69.63779 0z"/><path id="path111" fill-rule="evenodd" stroke="#fff" stroke-linecap="butt" stroke-linejoin="round" stroke-width="1" d="m284.6285 133.0342l69.63779 0l0 33.007874l-69.63779 0z"/><path id="path113" fill="#000" fill-rule="nonzero" d="m322.63138 153.065l-6.359375 0l-1.421875 3.953125l-2.0625 0l5.78125 -15.15625l1.75 0l5.796875 15.15625l-2.046875 0l-1.4375 -3.953125zm-5.75 -1.65625l5.15625 0l-2.59375 -7.078125l-2.5625 7.078125z"/><path id="path115" fill="#999" fill-rule="evenodd" d="m364.46066 57.622047l69.63779 0l0 33.007874l-69.63779 0z"/><path id="path117" fill-rule="evenodd" stroke="#434343" stroke-linecap="butt" stroke-linejoin="round" stroke-width="1" d="m364.46066 57.622047l69.63779 0l0 33.007874l-69.63779 0z"/><path id="path119" fill="#fff" fill-rule="nonzero" d="m378.92014 75.88723q0 -2.640625 1.171875 -4.1875q1.1875 -1.5625 3.25 -1.5625q1.640625 0 2.71875 1.21875l0 -5.75l3.015625 0l0 16.0l-2.71875 0l-0.140625 -1.203125q-1.125 1.40625 -2.90625 1.40625q-1.984375 0 -3.1875 -1.5625q-1.203125 -1.5625 -1.203125 -4.359375zm3.015625 0.21875q0 1.578125 0.546875 2.421875q0.546875 0.84375 1.609375 0.84375q1.390625 0 1.96875 -1.171875l0 -4.453125q-0.5625 -1.171875 -1.953125 -1.171875q-2.171875 0 -2.171875 3.53125zm16.002258 5.5q-0.203125 -0.40625 -0.296875 -1.015625q-1.09375 1.21875 -2.84375 1.21875q-1.65625 0 -2.75 -0.953125q-1.09375 -0.953125 -1.09375 -2.421875q0 -1.78125 1.328125 -2.734375q1.328125 -0.96875 3.84375 -0.984375l1.390625 0l0 -0.640625q0 -0.78125 -0.40625 -1.25q-0.40625 -0.46875 -1.265625 -0.46875q-0.765625 0 -1.203125 0.375q-0.421875 0.359375 -0.421875 0.984375l-3.015625 0q0 -0.96875 0.609375 -1.796875q0.609375 -0.84375 1.703125 -1.3125q1.109375 -0.46875 2.484375 -0.46875q2.078125 0 3.296875 1.046875q1.234375 1.03125 1.234375 2.9375l0 4.875q0.015625 1.609375 0.4375 2.4375l0 0.171875l-3.03125 0zm-2.484375 -2.09375q0.65625 0 1.21875 -0.296875q0.5625 -0.296875 0.84375 -0.796875l0 -1.9375l-1.125 0q-2.265625 0 -2.40625 1.5625l-0.015625 0.171875q0 0.5625 0.390625 0.9375q0.40625 0.359375 1.09375 0.359375zm10.997223 -11.9375l0 2.765625l1.921875 0l0 2.203125l-1.921875 0l0 5.625q0 0.625 0.234375 0.90625q0.234375 0.265625 0.921875 0.265625q0.5 0 0.875 -0.078125l0 2.28125q-0.875 0.265625 -1.8125 0.265625q-3.171875 0 -3.234375 -3.1875l0 -6.078125l-1.640625 0l0 -2.203125l1.640625 0l0 -2.765625l3.015625 0zm10.1284485 14.03125q-0.203125 -0.40625 -0.296875 -1.015625q-1.09375 1.21875 -2.84375 1.21875q-1.65625 0 -2.75 -0.953125q-1.09375 -0.953125 -1.09375 -2.421875q0 -1.78125 1.328125 -2.734375q1.328125 -0.96875 3.84375 -0.984375l1.390625 0l0 -0.640625q0 -0.78125 -0.40625 -1.25q-0.40625 -0.46875 -1.265625 -0.46875q-0.765625 0 -1.203125 0.375q-0.421875 0.359375 -0.421875 0.984375l-3.015625 0q0 -0.96875 0.609375 -1.796875q0.609375 -0.84375 1.703125 -1.3125q1.109375 -0.46875 2.484375 -0.46875q2.078125 0 3.296875 1.046875q1.234375 1.03125 1.234375 2.9375l0 4.875q0.015625 1.609375 0.4375 2.4375l0 0.171875l-3.03125 0zm-2.484375 -2.09375q0.65625 0 1.21875 -0.296875q0.5625 -0.296875 0.84375 -0.796875l0 -1.9375l-1.125 0q-2.265625 0 -2.40625 1.5625l-0.015625 0.171875q0 0.5625 0.390625 0.9375q0.40625 0.359375 1.09375 0.359375z"/><path id="path121" fill="#ffe599" fill-rule="evenodd" d="m364.46066 95.19293l69.63779 0l0 33.007874l-69.63779 0z"/><path id="path123" fill-rule="evenodd" stroke="#fff" stroke-linecap="butt" stroke-linejoin="round" stroke-width="1" d="m364.46066 95.19293l69.63779 0l0 33.007874l-69.63779 0z"/><path id="path125" fill="#000" fill-rule="nonzero" d="m400.8852 119.17687l-1.9375 0l0 -12.84375l-3.890625 1.4375l0 -1.75l5.53125 -2.078125l0.296875 0l0 15.234375z"/><path id="path127" fill="#ffe599" fill-rule="evenodd" d="m364.46066 132.76251l69.63779 0l0 33.007874l-69.63779 0z"/><path id="path129" fill-rule="evenodd" stroke="#fff" stroke-linecap="butt" stroke-linejoin="round" stroke-width="1" d="m364.46066 132.76251l69.63779 0l0 33.007874l-69.63779 0z"/><path id="path131" fill="#000" fill-rule="nonzero" d="m402.68207 151.6527l2.109375 0l0 1.578125l-2.109375 0l0 3.515625l-1.9375 0l0 -3.515625l-6.90625 0l0 -1.140625l6.796875 -10.5l2.046875 0l0 10.0625zm-6.65625 0l4.71875 0l0 -7.4375l-0.21875 0.421875l-4.5 7.015625z"/><path id="path133" fill="#999" fill-rule="evenodd" d="m286.15222 208.4462l68.188995 0l0 32.314957l-68.188995 0z"/><path id="path135" fill-rule="evenodd" stroke="#434343" stroke-linecap="butt" stroke-linejoin="round" stroke-width="1" d="m286.15222 208.4462l68.188995 0l0 32.314957l-68.188995 0z"/><path id="path137" fill="#fff" fill-rule="nonzero" d="m308.85498 227.56805l-1.078125 1.078125l0 3.4375l-3.015625 0l0 -16.0l3.015625 0l0 8.859375l0.578125 -0.75l2.890625 -3.375l3.609375 0l-4.078125 4.6875l4.421875 6.578125l-3.453125 0l-2.890625 -4.515625zm12.278473 4.71875q-2.484375 0 -4.046875 -1.515625q-1.546875 -1.515625 -1.546875 -4.046875l0 -0.296875q0 -1.703125 0.65625 -3.03125q0.65625 -1.34375 1.859375 -2.0625q1.203125 -0.71875 2.75 -0.71875q2.3125 0 3.625 1.453125q1.328125 1.453125 1.328125 4.125l0 1.234375l-7.171875 0q0.15625 1.109375 0.890625 1.78125q0.734375 0.65625 1.859375 0.65625q1.734375 0 2.71875 -1.265625l1.46875 1.65625q-0.671875 0.96875 -1.828125 1.5q-1.15625 0.53125 -2.5625 0.53125zm-0.34375 -9.25q-0.890625 0 -1.453125 0.609375q-0.5625 0.609375 -0.71875 1.734375l4.1875 0l0 -0.25q-0.015625 -1.0 -0.546875 -1.546875q-0.515625 -0.546875 -1.46875 -0.546875zm10.752411 4.78125l2.09375 -7.0l3.21875 0l-4.53125 13.015625l-0.25 0.59375q-1.0 2.203125 -3.328125 2.203125q-0.65625 0 -1.328125 -0.1875l0 -2.28125l0.453125 0q0.859375 0 1.28125 -0.265625q0.421875 -0.25 0.65625 -0.859375l0.359375 -0.921875l-3.953125 -11.296875l3.234375 0l2.09375 7.0z"/><path id="path139" fill="#93c47d" fill-rule="evenodd" d="m286.15222 245.75888l68.188995 0l0 32.314972l-68.188995 0z"/><path id="path141" fill-rule="evenodd" stroke="#fff" stroke-linecap="butt" stroke-linejoin="round" stroke-width="1" d="m286.15222 245.75888l68.188995 0l0 32.314972l-68.188995 0z"/><path id="path143" fill="#000" fill-rule="nonzero" d="m315.37335 269.39636l0 -15.15625l4.953125 0q2.46875 0 3.703125 1.015625q1.25 1.015625 1.25 3.015625q0 1.0625 -0.609375 1.890625q-0.59375 0.8125 -1.640625 1.25q1.234375 0.34375 1.9375 1.3125q0.71875 0.96875 0.71875 2.296875q0 2.046875 -1.328125 3.21875q-1.3125 1.15625 -3.734375 1.15625l-5.25 0zm2.0 -7.09375l0 5.453125l3.296875 0q1.390625 0 2.203125 -0.71875q0.8125 -0.71875 0.8125 -2.0q0 -2.734375 -2.984375 -2.734375l-3.328125 0zm0 -1.609375l3.015625 0q1.3125 0 2.09375 -0.65625q0.796875 -0.65625 0.796875 -1.765625q0 -1.25 -0.734375 -1.8125q-0.734375 -0.578125 -2.21875 -0.578125l-2.953125 0l0 4.8125z"/><path id="path145" fill="#93c47d" fill-rule="evenodd" d="m286.15222 282.27747l68.188995 0l0 32.31494l-68.188995 0z"/><path id="path147" fill-rule="evenodd" stroke="#fff" stroke-linecap="butt" stroke-linejoin="round" stroke-width="1" d="m286.15222 282.27747l68.188995 0l0 32.31494l-68.188995 0z"/><path id="path149" fill="#000" fill-rule="nonzero" d="m315.37335 305.91495l0 -15.15625l4.953125 0q2.46875 0 3.703125 1.015625q1.25 1.015625 1.25 3.015625q0 1.0625 -0.609375 1.890625q-0.59375 0.8125 -1.640625 1.25q1.234375 0.34375 1.9375 1.3125q0.71875 0.96875 0.71875 2.296875q0 2.046875 -1.328125 3.21875q-1.3125 1.15625 -3.734375 1.15625l-5.25 0zm2.0 -7.09375l0 5.453125l3.296875 0q1.390625 0 2.203125 -0.71875q0.8125 -0.71875 0.8125 -2.0q0 -2.734375 -2.984375 -2.734375l-3.328125 0zm0 -1.609375l3.015625 0q1.3125 0 2.09375 -0.65625q0.796875 -0.65625 0.796875 -1.765625q0 -1.25 -0.734375 -1.8125q-0.734375 -0.578125 -2.21875 -0.578125l-2.953125 0l0 4.8125z"/><path id="path151" fill="#999" fill-rule="evenodd" d="m364.31213 208.4462l68.188965 0l0 32.314957l-68.188965 0z"/><path id="path153" fill-rule="evenodd" stroke="#434343" stroke-linecap="butt" stroke-linejoin="round" stroke-width="1" d="m364.31213 208.4462l68.188965 0l0 32.314957l-68.188965 0z"/><path id="path155" fill="#fff" fill-rule="nonzero" d="m378.04718 226.36493q0 -2.640625 1.171875 -4.1875q1.1875 -1.5625 3.25 -1.5625q1.640625 0 2.71875 1.21875l0 -5.75l3.015625 0l0 16.0l-2.71875 0l-0.140625 -1.203125q-1.125 1.40625 -2.90625 1.40625q-1.984375 0 -3.1875 -1.5625q-1.203125 -1.5625 -1.203125 -4.359375zm3.015625 0.21875q0 1.578125 0.546875 2.421875q0.546875 0.84375 1.609375 0.84375q1.390625 0 1.96875 -1.171875l0 -4.453125q-0.5625 -1.171875 -1.953125 -1.171875q-2.171875 0 -2.171875 3.53125zm16.002258 5.5q-0.203125 -0.40625 -0.296875 -1.015625q-1.09375 1.21875 -2.84375 1.21875q-1.65625 0 -2.75 -0.953125q-1.09375 -0.953125 -1.09375 -2.421875q0 -1.78125 1.328125 -2.734375q1.328125 -0.96875 3.84375 -0.984375l1.390625 0l0 -0.640625q0 -0.78125 -0.40625 -1.25q-0.40625 -0.46875 -1.265625 -0.46875q-0.765625 0 -1.203125 0.375q-0.421875 0.359375 -0.421875 0.984375l-3.015625 0q0 -0.96875 0.609375 -1.796875q0.609375 -0.84375 1.703125 -1.3125q1.109375 -0.46875 2.484375 -0.46875q2.078125 0 3.296875 1.046875q1.234375 1.03125 1.234375 2.9375l0 4.875q0.015625 1.609375 0.4375 2.4375l0 0.171875l-3.03125 0zm-2.484375 -2.09375q0.65625 0 1.21875 -0.296875q0.5625 -0.296875 0.84375 -0.796875l0 -1.9375l-1.125 0q-2.265625 0 -2.40625 1.5625l-0.015625 0.171875q0 0.5625 0.390625 0.9375q0.40625 0.359375 1.09375 0.359375zm10.997223 -11.9375l0 2.765625l1.921875 0l0 2.203125l-1.921875 0l0 5.625q0 0.625 0.234375 0.90625q0.234375 0.265625 0.921875 0.265625q0.5 0 0.875 -0.078125l0 2.28125q-0.875 0.265625 -1.8125 0.265625q-3.171875 0 -3.234375 -3.1875l0 -6.078125l-1.640625 0l0 -2.203125l1.640625 0l0 -2.765625l3.015625 0zm10.1284485 14.03125q-0.203125 -0.40625 -0.296875 -1.015625q-1.09375 1.21875 -2.84375 1.21875q-1.65625 0 -2.75 -0.953125q-1.09375 -0.953125 -1.09375 -2.421875q0 -1.78125 1.328125 -2.734375q1.328125 -0.96875 3.84375 -0.984375l1.390625 0l0 -0.640625q0 -0.78125 -0.40625 -1.25q-0.40625 -0.46875 -1.265625 -0.46875q-0.765625 0 -1.203125 0.375q-0.421875 0.359375 -0.421875 0.984375l-3.015625 0q0 -0.96875 0.609375 -1.796875q0.609375 -0.84375 1.703125 -1.3125q1.109375 -0.46875 2.484375 -0.46875q2.078125 0 3.296875 1.046875q1.234375 1.03125 1.234375 2.9375l0 4.875q0.015625 1.609375 0.4375 2.4375l0 0.171875l-3.03125 0zm-2.484375 -2.09375q0.65625 0 1.21875 -0.296875q0.5625 -0.296875 0.84375 -0.796875l0 -1.9375l-1.125 0q-2.265625 0 -2.40625 1.5625l-0.015625 0.171875q0 0.5625 0.390625 0.9375q0.40625 0.359375 1.09375 0.359375z"/><path id="path157" fill="#93c47d" fill-rule="evenodd" d="m364.31213 245.22948l68.188965 0l0 32.314957l-68.188965 0z"/><path id="path159" fill-rule="evenodd" stroke="#fff" stroke-linecap="butt" stroke-linejoin="round" stroke-width="1" d="m364.31213 245.22948l68.188965 0l0 32.314957l-68.188965 0z"/><path id="path161" fill="#000" fill-rule="nonzero" d="m403.606 268.86694l-9.921875 0l0 -1.390625l5.25 -5.828125q1.15625 -1.328125 1.59375 -2.15625q0.453125 -0.828125 0.453125 -1.703125q0 -1.1875 -0.71875 -1.9374847q-0.71875 -0.765625 -1.921875 -0.765625q-1.4375 0 -2.234375 0.8125q-0.796875 0.81248474 -0.796875 2.2812347l-1.921875 0q0 -2.09375 1.34375 -3.3906097q1.359375 -1.296875 3.609375 -1.296875q2.125 0 3.34375 1.109375q1.234375 1.109375 1.234375 2.9531097q0 2.234375 -2.859375 5.328125l-4.0625 4.40625l7.609375 0l0 1.578125z"/><path id="path163" fill="#93c47d" fill-rule="evenodd" d="m364.31213 282.01147l68.188965 0l0 32.314972l-68.188965 0z"/><path id="path165" fill-rule="evenodd" stroke="#fff" stroke-linecap="butt" stroke-linejoin="round" stroke-width="1" d="m364.31213 282.01147l68.188965 0l0 32.314972l-68.188965 0z"/><path id="path167" fill="#000" fill-rule="nonzero" d="m394.5591 298.03958l0.78125 -7.546875l7.765625 0l0 1.78125l-6.140625 0l-0.453125 4.125q1.109375 -0.65625 2.53125 -0.65625q2.078125 0 3.28125 1.375q1.21875 1.359375 1.21875 3.703125q0 2.34375 -1.265625 3.6875q-1.25 1.34375 -3.53125 1.34375q-2.0 0 -3.28125 -1.109375q-1.265625 -1.109375 -1.4375 -3.078125l1.8125 0q0.1875 1.296875 0.9375 1.96875q0.75 0.65625 1.96875 0.65625q1.34375 0 2.109375 -0.921875q0.765625 -0.921875 0.765625 -2.53125q0 -1.515625 -0.828125 -2.4375q-0.828125 -0.921875 -2.203125 -0.921875q-1.25 0 -1.96875 0.546875l-0.515625 0.421875l-1.546875 -0.40625z"/><path id="path169" fill="#000" fill-opacity="0" fill-rule="evenodd" d="m284.62598 2.4383202l149.48032 0l0 50.07874l-149.48032 0z"/><path id="path171" fill="#000" fill-rule="nonzero" d="m330.77097 31.055195l-7.546875 0l-1.6875 4.703125l-2.453125 0l6.875 -18.0l2.078125 0l6.890625 18.0l-2.4375 0l-1.71875 -4.703125zm-6.828125 -1.953125l6.125 0l-3.0625 -8.421875l-3.0625 8.421875zm12.507019 -0.140625q0 -3.140625 1.4375 -4.984375q1.453125 -1.84375 3.84375 -1.84375q2.453125 0 3.828125 1.734375l0.109375 -1.484375l2.078125 0l0 13.046875q0 2.609375 -1.546875 4.09375q-1.53125 1.5 -4.125 1.5q-1.4375 0 -2.828125 -0.625q-1.390625 -0.609375 -2.109375 -1.6875l1.1875 -1.375q1.46875 1.828125 3.59375 1.828125q1.671875 0 2.59375 -0.953125q0.9375 -0.9375 0.9375 -2.640625l0 -1.140625q-1.375 1.578125 -3.75 1.578125q-2.34375 0 -3.796875 -1.890625q-1.453125 -1.890625 -1.453125 -5.15625zm2.296875 0.25q0 2.265625 0.921875 3.5625q0.9375 1.296875 2.609375 1.296875q2.15625 0 3.171875 -1.96875l0 -6.109375q-1.046875 -1.921875 -3.15625 -1.921875q-1.65625 0 -2.609375 1.296875q-0.9375 1.296875 -0.9375 3.84375zm18.928741 -4.78125q-0.515625 -0.09375 -1.125 -0.09375q-2.25 0 -3.0625 1.921875l0 9.5l-2.28125 0l0 -13.375l2.21875 0l0.046875 1.546875q1.125 -1.796875 3.1875 -1.796875q0.671875 0 1.015625 0.171875l0 2.125zm10.367371 10.0q-1.34375 1.578125 -3.921875 1.578125q-2.140625 0 -3.265625 -1.234375q-1.125 -1.25 -1.125 -3.6875l0 -8.703125l2.28125 0l0 8.640625q0 3.046875 2.46875 3.046875q2.625 0 3.5 -1.953125l0 -9.734375l2.28125 0l0 13.375l-2.171875 0l-0.046875 -1.328125zm16.993896 -5.21875q0 3.0625 -1.40625 4.9375q-1.390625 1.859375 -3.765625 1.859375q-2.4375 0 -3.84375 -1.546875l0 6.4375l-2.28125 0l0 -18.515625l2.09375 0l0.109375 1.484375q1.390625 -1.734375 3.875 -1.734375q2.421875 0 3.8125 1.8125q1.40625 1.8125 1.40625 5.0625l0 0.203125zm-2.28125 -0.25q0 -2.265625 -0.96875 -3.578125q-0.96875 -1.3125 -2.640625 -1.3125q-2.078125 0 -3.125 1.84375l0 6.390625q1.03125 1.828125 3.140625 1.828125q1.65625 0 2.625 -1.296875q0.96875 -1.3125 0.96875 -3.875zm13.459961 6.796875q-0.203125 -0.390625 -0.328125 -1.40625q-1.59375 1.65625 -3.8125 1.65625q-1.96875 0 -3.25 -1.109375q-1.265625 -1.125 -1.265625 -2.84375q0 -2.09375 1.59375 -3.25q1.59375 -1.15625 4.46875 -1.15625l2.234375 0l0 -1.0625q0 -1.1875 -0.71875 -1.890625q-0.71875 -0.71875 -2.125 -0.71875q-1.21875 0 -2.046875 0.625q-0.828125 0.609375 -0.828125 1.484375l-2.296875 0q0 -1.0 0.703125 -1.9375q0.71875 -0.9375 1.9375 -1.46875q1.21875 -0.546875 2.671875 -0.546875q2.3125 0 3.625 1.15625q1.3125 1.15625 1.359375 3.1875l0 6.15625q0 1.84375 0.46875 2.921875l0 0.203125l-2.390625 0zm-3.796875 -1.75q1.0625 0 2.03125 -0.546875q0.96875 -0.5625 1.40625 -1.453125l0 -2.75l-1.796875 0q-4.203125 0 -4.203125 2.46875q0 1.078125 0.71875 1.6875q0.71875 0.59375 1.84375 0.59375z"/><path id="path173" fill="#999" fill-rule="evenodd" d="m527.13385 82.52756l69.63782 0l0 33.007874l-69.63782 0z"/><path id="path175" fill-rule="evenodd" stroke="#434343" stroke-linecap="butt" stroke-linejoin="round" stroke-width="1" d="m527.13385 82.52756l69.63782 0l0 33.007874l-69.63782 0z"/><path id="path177" fill="#fff" fill-rule="nonzero" d="m550.56104 101.99587l-1.078125 1.078125l0 3.4375l-3.015625 0l0 -16.0l3.015625 0l0 8.859375l0.578125 -0.75l2.890625 -3.375l3.609375 0l-4.078125 4.6875l4.421875 6.578125l-3.453125 0l-2.890625 -4.515625zm12.278442 4.71875q-2.484375 0 -4.046875 -1.515625q-1.546875 -1.515625 -1.546875 -4.046875l0 -0.296875q0 -1.703125 0.65625 -3.03125q0.65625 -1.34375 1.859375 -2.0625q1.203125 -0.71875 2.75 -0.71875q2.3125 0 3.625 1.453125q1.328125 1.453125 1.328125 4.125l0 1.234375l-7.171875 0q0.15625 1.109375 0.890625 1.78125q0.734375 0.65625 1.859375 0.65625q1.734375 0 2.71875 -1.265625l1.46875 1.65625q-0.671875 0.96875 -1.828125 1.5q-1.15625 0.53125 -2.5625 0.53125zm-0.34375 -9.25q-0.890625 0 -1.453125 0.609375q-0.5625 0.609375 -0.71875 1.734375l4.1875 0l0 -0.25q-0.015625 -1.0 -0.546875 -1.546875q-0.515625 -0.546875 -1.46875 -0.546875zm10.752441 4.78125l2.09375 -7.0l3.21875 0l-4.53125 13.015625l-0.25 0.59375q-1.0 2.203125 -3.328125 2.203125q-0.65625 0 -1.328125 -0.1875l0 -2.28125l0.453125 0q0.859375 0 1.28125 -0.265625q0.421875 -0.25 0.65625 -0.859375l0.359375 -0.921875l-3.953125 -11.296875l3.234375 0l2.09375 7.0z"/><path id="path179" fill="#ffe599" fill-rule="evenodd" d="m527.13385 120.63897l69.63782 0l0 33.00788l-69.63782 0z"/><path id="path181" fill-rule="evenodd" stroke="#fff" stroke-linecap="butt" stroke-linejoin="round" stroke-width="1" d="m527.13385 120.63897l69.63782 0l0 33.00788l-69.63782 0z"/><path id="path183" fill="#000" fill-rule="nonzero" d="m565.1368 140.66978l-6.359375 0l-1.421875 3.953125l-2.0625 0l5.78125 -15.15625l1.75 0l5.796875 15.15625l-2.046875 0l-1.4375 -3.953125zm-5.75 -1.65625l5.15625 0l-2.59375 -7.078125l-2.5625 7.078125z"/><path id="path185" fill="#999" fill-rule="evenodd" d="m606.966 82.52756l69.63782 0l0 33.007874l-69.63782 0z"/><path id="path187" fill-rule="evenodd" stroke="#434343" stroke-linecap="butt" stroke-linejoin="round" stroke-width="1" d="m606.966 82.52756l69.63782 0l0 33.007874l-69.63782 0z"/><path id="path189" fill="#fff" fill-rule="nonzero" d="m621.4255 100.79275q0 -2.640625 1.171875 -4.1875q1.1875 -1.5625 3.25 -1.5625q1.640625 0 2.71875 1.21875l0 -5.75l3.015625 0l0 16.0l-2.71875 0l-0.140625 -1.203125q-1.125 1.40625 -2.90625 1.40625q-1.984375 0 -3.1875 -1.5625q-1.203125 -1.5625 -1.203125 -4.359375zm3.015625 0.21875q0 1.578125 0.546875 2.421875q0.546875 0.84375 1.609375 0.84375q1.390625 0 1.96875 -1.171875l0 -4.453125q-0.5625 -1.171875 -1.953125 -1.171875q-2.171875 0 -2.171875 3.53125zm16.002258 5.5q-0.203125 -0.40625 -0.296875 -1.015625q-1.09375 1.21875 -2.84375 1.21875q-1.65625 0 -2.75 -0.953125q-1.09375 -0.953125 -1.09375 -2.421875q0 -1.78125 1.328125 -2.734375q1.328125 -0.96875 3.84375 -0.984375l1.390625 0l0 -0.640625q0 -0.78125 -0.40625 -1.25q-0.40625 -0.46875 -1.265625 -0.46875q-0.765625 0 -1.203125 0.375q-0.421875 0.359375 -0.421875 0.984375l-3.015625 0q0 -0.96875 0.609375 -1.796875q0.609375 -0.84375 1.703125 -1.3125q1.109375 -0.46875 2.484375 -0.46875q2.078125 0 3.296875 1.046875q1.234375 1.03125 1.234375 2.9375l0 4.875q0.015625 1.609375 0.4375 2.4375l0 0.171875l-3.03125 0zm-2.484375 -2.09375q0.65625 0 1.21875 -0.296875q0.5625 -0.296875 0.84375 -0.796875l0 -1.9375l-1.125 0q-2.265625 0 -2.40625 1.5625l-0.015625 0.171875q0 0.5625 0.390625 0.9375q0.40625 0.359375 1.09375 0.359375zm10.997253 -11.9375l0 2.765625l1.921875 0l0 2.203125l-1.921875 0l0 5.625q0 0.625 0.234375 0.90625q0.234375 0.265625 0.921875 0.265625q0.5 0 0.875 -0.078125l0 2.28125q-0.875 0.265625 -1.8125 0.265625q-3.171875 0 -3.234375 -3.1875l0 -6.078125l-1.640625 0l0 -2.203125l1.640625 0l0 -2.765625l3.015625 0zm10.128418 14.03125q-0.203125 -0.40625 -0.296875 -1.015625q-1.09375 1.21875 -2.84375 1.21875q-1.65625 0 -2.75 -0.953125q-1.09375 -0.953125 -1.09375 -2.421875q0 -1.78125 1.328125 -2.734375q1.328125 -0.96875 3.84375 -0.984375l1.390625 0l0 -0.640625q0 -0.78125 -0.40625 -1.25q-0.40625 -0.46875 -1.265625 -0.46875q-0.765625 0 -1.203125 0.375q-0.421875 0.359375 -0.421875 0.984375l-3.015625 0q0 -0.96875 0.609375 -1.796875q0.609375 -0.84375 1.703125 -1.3125q1.109375 -0.46875 2.484375 -0.46875q2.078125 0 3.296875 1.046875q1.234375 1.03125 1.234375 2.9375l0 4.875q0.015625 1.609375 0.4375 2.4375l0 0.171875l-3.03125 0zm-2.484375 -2.09375q0.65625 0 1.21875 -0.296875q0.5625 -0.296875 0.84375 -0.796875l0 -1.9375l-1.125 0q-2.265625 0 -2.40625 1.5625l-0.015625 0.171875q0 0.5625 0.390625 0.9375q0.40625 0.359375 1.09375 0.359375z"/><path id="path191" fill="#ffe599" fill-rule="evenodd" d="m606.966 120.09823l69.63782 0l0 33.007866l-69.63782 0z"/><path id="path193" fill-rule="evenodd" stroke="#fff" stroke-linecap="butt" stroke-linejoin="round" stroke-width="1" d="m606.966 120.09823l69.63782 0l0 33.007866l-69.63782 0z"/><path id="path195" fill="#000" fill-rule="nonzero" d="m637.93744 136.4728l0.78125 -7.546875l7.765625 0l0 1.78125l-6.140625 0l-0.453125 4.125q1.109375 -0.65625 2.53125 -0.65625q2.078125 0 3.28125 1.375q1.21875 1.359375 1.21875 3.703125q0 2.34375 -1.265625 3.6875q-1.25 1.34375 -3.53125 1.34375q-2.0 0 -3.28125 -1.109375q-1.265625 -1.109375 -1.4375 -3.078125l1.8125 0q0.1875 1.296875 0.9375 1.96875q0.75 0.65625 1.96875 0.65625q1.34375 0 2.109375 -0.921875q0.765625 -0.921875 0.765625 -2.53125q0 -1.515625 -0.828125 -2.4375q-0.828125 -0.921875 -2.203125 -0.921875q-1.25 0 -1.96875 0.546875l-0.515625 0.421875l-1.546875 -0.40625z"/><path id="path197" fill="#000" fill-opacity="0" fill-rule="evenodd" d="m507.13123 27.346457l187.37012 0l0 50.078735l-187.37012 0z"/><path id="path199" fill="#000" fill-rule="nonzero" d="m536.7333 55.963333l-7.546875 0l-1.6875 4.703125l-2.453125 0l6.875 -18.0l2.078125 0l6.890625 18.0l-2.4375 0l-1.71875 -4.703125zm-6.828125 -1.953125l6.125 0l-3.0625 -8.421875l-3.0625 8.421875zm12.507019 -0.140625q0 -3.140625 1.4375 -4.984375q1.453125 -1.84375 3.84375 -1.84375q2.453125 0 3.828125 1.734375l0.109375 -1.484375l2.078125 0l0 13.046875q0 2.609375 -1.546875 4.09375q-1.53125 1.5 -4.125 1.5q-1.4375 0 -2.828125 -0.625q-1.390625 -0.609375 -2.109375 -1.6875l1.1875 -1.375q1.46875 1.828125 3.59375 1.828125q1.671875 0 2.59375 -0.953125q0.9375 -0.9375 0.9375 -2.640625l0 -1.140625q-1.375 1.578125 -3.75 1.578125q-2.34375 0 -3.796875 -1.890625q-1.453125 -1.890625 -1.453125 -5.15625zm2.296875 0.25q0 2.265625 0.921875 3.5625q0.9375 1.296875 2.609375 1.296875q2.15625 0 3.171875 -1.96875l0 -6.109375q-1.046875 -1.921875 -3.15625 -1.921875q-1.65625 0 -2.609375 1.296875q-0.9375 1.296875 -0.9375 3.84375zm18.928772 -4.78125q-0.515625 -0.09375 -1.125 -0.09375q-2.25 0 -3.0625 1.921875l0 9.5l-2.28125 0l0 -13.375l2.21875 0l0.046875 1.546875q1.125 -1.796875 3.1875 -1.796875q0.671875 0 1.015625 0.171875l0 2.125zm7.413574 11.578125q-2.71875 0 -4.421875 -1.78125q-1.703125 -1.796875 -1.703125 -4.78125l0 -0.421875q0 -2.0 0.75 -3.5625q0.765625 -1.5625 2.125 -2.4375q1.375 -0.890625 2.96875 -0.890625q2.609375 0 4.046875 1.71875q1.453125 1.71875 1.453125 4.921875l0 0.953125l-9.0625 0q0.046875 1.96875 1.15625 3.1875q1.109375 1.21875 2.8125 1.21875q1.21875 0 2.046875 -0.484375q0.84375 -0.5 1.484375 -1.3125l1.390625 1.078125q-1.6875 2.59375 -5.046875 2.59375zm-0.28125 -12.0q-1.390625 0 -2.328125 1.015625q-0.9375 1.0 -1.15625 2.8125l6.703125 0l0 -0.171875q-0.109375 -1.734375 -0.953125 -2.6875q-0.828125 -0.96875 -2.265625 -0.96875zm7.605957 4.953125q0 -3.140625 1.4375 -4.984375q1.453125 -1.84375 3.84375 -1.84375q2.453125 0 3.828125 1.734375l0.109375 -1.484375l2.078125 0l0 13.046875q0 2.609375 -1.546875 4.09375q-1.53125 1.5 -4.125 1.5q-1.4375 0 -2.828125 -0.625q-1.390625 -0.609375 -2.109375 -1.6875l1.1875 -1.375q1.46875 1.828125 3.59375 1.828125q1.671875 0 2.59375 -0.953125q0.9375 -0.9375 0.9375 -2.640625l0 -1.140625q-1.375 1.578125 -3.75 1.578125q-2.34375 0 -3.796875 -1.890625q-1.453125 -1.890625 -1.453125 -5.15625zm2.296875 0.25q0 2.265625 0.921875 3.5625q0.9375 1.296875 2.609375 1.296875q2.15625 0 3.171875 -1.96875l0 -6.109375q-1.046875 -1.921875 -3.15625 -1.921875q-1.65625 0 -2.609375 1.296875q-0.9375 1.296875 -0.9375 3.84375zm20.725647 6.546875q-0.203125 -0.390625 -0.328125 -1.40625q-1.59375 1.65625 -3.8125 1.65625q-1.96875 0 -3.25 -1.109375q-1.265625 -1.125 -1.265625 -2.84375q0 -2.09375 1.59375 -3.25q1.59375 -1.15625 4.46875 -1.15625l2.234375 0l0 -1.0625q0 -1.1875 -0.71875 -1.890625q-0.71875 -0.71875 -2.125 -0.71875q-1.21875 0 -2.046875 0.625q-0.828125 0.609375 -0.828125 1.484375l-2.296875 0q0 -1.0 0.703125 -1.9375q0.71875 -0.9375 1.9375 -1.46875q1.21875 -0.546875 2.671875 -0.546875q2.3125 0 3.625 1.15625q1.3125 1.15625 1.359375 3.1875l0 6.15625q0 1.84375 0.46875 2.921875l0 0.203125l-2.390625 0zm-3.796875 -1.75q1.0625 0 2.03125 -0.546875q0.96875 -0.5625 1.40625 -1.453125l0 -2.75l-1.796875 0q-4.203125 0 -4.203125 2.46875q0 1.078125 0.71875 1.6875q0.71875 0.59375 1.84375 0.59375zm15.484802 -5.5625q0 -2.796875 0.75 -5.359375q0.75 -2.578125 2.234375 -4.671875q1.484375 -2.109375 3.078125 -2.96875l0.46875 1.5q-1.796875 1.390625 -2.953125 4.234375q-1.15625 2.84375 -1.28125 6.359375l0 1.0625q0 4.765625 1.734375 8.28125q1.0625 2.109375 2.5 3.296875l-0.46875 1.390625q-1.640625 -0.921875 -3.140625 -3.0625q-2.921875 -4.203125 -2.921875 -10.0625z"/><path id="path201" fill="#000" fill-rule="nonzero" d="m627.89984 56.900833q0.1875 -1.0 -1.375 -1.4375l-1.125 -0.28125q-4.0 -1.109375 -3.890625 -3.890625q0.0625 -1.890625 1.671875 -3.078125q1.625 -1.203125 3.890625 -1.171875q2.265625 0.015625 3.65625 1.203125q1.40625 1.171875 1.4375 3.125l-3.46875 -0.015625q0.03125 -1.71875 -1.703125 -1.75q-0.8125 0 -1.421875 0.421875q-0.59375 0.40625 -0.734375 1.09375q-0.1875 0.984375 1.5 1.390625l0.5 0.125q1.703125 0.40625 2.59375 0.9375q0.90625 0.515625 1.390625 1.296875q0.5 0.78125 0.46875 1.859375q-0.046875 1.28125 -0.828125 2.234375q-0.78125 0.953125 -2.15625 1.46875q-1.359375 0.515625 -2.875 0.484375q-2.21875 -0.03125 -3.703125 -1.28125q-1.484375 -1.25 -1.515625 -3.25l3.296875 0.03125q0.046875 1.90625 2.046875 1.9375q0.96875 0 1.59375 -0.390625q0.625 -0.40625 0.75 -1.0625zm13.281921 2.375q-1.484375 1.671875 -3.6875 1.640625q-1.9375 -0.03125 -2.921875 -1.390625q-0.984375 -1.359375 -0.765625 -3.578125l1.453125 -8.65625l3.484375 0l-1.46875 8.6875q-0.0625 0.40625 -0.015625 0.765625q0.125 1.234375 1.375 1.28125q1.609375 0.046875 2.671875 -1.25l1.671875 -9.484375l3.515625 0l-2.328125 13.375l-3.25 0l0.265625 -1.390625zm11.157288 -12.0l-0.296875 1.515625q1.625 -1.796875 3.921875 -1.75q1.234375 0.015625 2.046875 0.5625q0.828125 0.546875 1.109375 1.46875q1.765625 -2.078125 4.15625 -2.03125q1.84375 0.03125 2.765625 1.265625q0.9375 1.21875 0.796875 3.53125l-0.03125 0.3125l-1.421875 8.515625l-3.5 0l1.421875 -8.546875q0.0625 -0.453125 0.046875 -0.859375q-0.09375 -1.296875 -1.484375 -1.328125q-1.4375 0 -2.46875 1.53125l-0.03125 0.28125l-1.5625 8.921875l-3.484375 0l1.421875 -8.515625q0.046875 -0.46875 0.03125 -0.859375q-0.078125 -1.3125 -1.46875 -1.34375q-1.3125 -0.046875 -2.390625 1.25l-1.65625 9.46875l-3.5 0l2.3125 -13.375l3.265625 -0.015625z"/><path id="path203" fill="#000" fill-rule="nonzero" d="m675.1406 53.47896q0 2.765625 -0.734375 5.296875q-0.71875 2.515625 -2.21875 4.65625q-1.484375 2.140625 -3.109375 3.046875l-0.484375 -1.390625q1.90625 -1.46875 3.0625 -4.53125q1.15625 -3.078125 1.1875 -6.828125l0 -0.390625q0 -2.609375 -0.546875 -4.828125q-0.546875 -2.234375 -1.515625 -4.0q-0.96875 -1.78125 -2.1875 -2.765625l0.484375 -1.390625q1.625 0.890625 3.109375 3.015625q1.484375 2.109375 2.21875 4.65625q0.734375 2.546875 0.734375 5.453125z"/><path id="path205" fill="#999" fill-rule="evenodd" d="m286.9567 377.5433l67.433075 0l0 31.937012l-67.433075 0z"/><path id="path207" fill-rule="evenodd" stroke="#434343" stroke-linecap="butt" stroke-linejoin="round" stroke-width="1" d="m286.9567 377.5433l67.433075 0l0 31.937012l-67.433075 0z"/><path id="path209" fill="#fff" fill-rule="nonzero" d="m309.2815 396.4762l-1.078125 1.078125l0 3.4375l-3.015625 0l0 -16.0l3.015625 0l0 8.859375l0.578125 -0.75l2.890625 -3.375l3.609375 0l-4.078125 4.6875l4.421875 6.578125l-3.453125 0l-2.890625 -4.515625zm12.278473 4.71875q-2.484375 0 -4.046875 -1.515625q-1.546875 -1.515625 -1.546875 -4.046875l0 -0.296875q0 -1.703125 0.65625 -3.03125q0.65625 -1.34375 1.859375 -2.0625q1.203125 -0.71875 2.75 -0.71875q2.3125 0 3.625 1.453125q1.328125 1.453125 1.328125 4.125l0 1.234375l-7.171875 0q0.15625 1.109375 0.890625 1.78125q0.734375 0.65625 1.859375 0.65625q1.734375 0 2.71875 -1.265625l1.46875 1.65625q-0.671875 0.96875 -1.828125 1.5q-1.15625 0.53125 -2.5625 0.53125zm-0.34375 -9.25q-0.890625 0 -1.453125 0.609375q-0.5625 0.609375 -0.71875 1.734375l4.1875 0l0 -0.25q-0.015625 -1.0 -0.546875 -1.546875q-0.515625 -0.546875 -1.46875 -0.546875zm10.752411 4.78125l2.09375 -7.0l3.21875 0l-4.53125 13.015625l-0.25 0.59375q-1.0 2.203125 -3.328125 2.203125q-0.65625 0 -1.328125 -0.1875l0 -2.28125l0.453125 0q0.859375 0 1.28125 -0.265625q0.421875 -0.25 0.65625 -0.859375l0.359375 -0.921875l-3.953125 -11.296875l3.234375 0l2.09375 7.0z"/><path id="path211" fill="#ead1dc" fill-rule="evenodd" d="m286.9567 414.44846l67.433075 0l0 31.937012l-67.433075 0z"/><path id="path213" fill-rule="evenodd" stroke="#fff" stroke-linecap="butt" stroke-linejoin="round" stroke-width="1" d="m286.9567 414.44846l67.433075 0l0 31.937012l-67.433075 0z"/><path id="path215" fill="#000" fill-rule="nonzero" d="m326.63846 433.08447q-0.28125 2.40625 -1.78125 3.71875q-1.484375 1.296875 -3.953125 1.296875q-2.6875 0 -4.3125 -1.921875q-1.625 -1.921875 -1.625 -5.15625l0 -1.453125q0 -2.125 0.75 -3.71875q0.765625 -1.609375 2.140625 -2.46875q1.390625 -0.859375 3.21875 -0.859375q2.421875 0 3.875 1.359375q1.453125 1.34375 1.6875 3.71875l-2.0 0q-0.265625 -1.796875 -1.140625 -2.609375q-0.859375 -0.8125 -2.421875 -0.8125q-1.921875 0 -3.015625 1.421875q-1.078125 1.40625 -1.078125 4.015625l0 1.46875q0 2.46875 1.03125 3.9375q1.03125 1.453125 2.890625 1.453125q1.65625 0 2.546875 -0.75q0.890625 -0.765625 1.1875 -2.640625l2.0 0z"/><path id="path217" fill="#ead1dc" fill-rule="evenodd" d="m286.9567 450.56818l67.433075 0l0 31.937012l-67.433075 0z"/><path id="path219" fill-rule="evenodd" stroke="#fff" stroke-linecap="butt" stroke-linejoin="round" stroke-width="1" d="m286.9567 450.56818l67.433075 0l0 31.937012l-67.433075 0z"/><path id="path221" fill="#000" fill-rule="nonzero" d="m326.63846 469.2042q-0.28125 2.40625 -1.78125 3.71875q-1.484375 1.296875 -3.953125 1.296875q-2.6875 0 -4.3125 -1.921875q-1.625 -1.921875 -1.625 -5.15625l0 -1.453125q0 -2.125 0.75 -3.71875q0.765625 -1.609375 2.140625 -2.46875q1.390625 -0.859375 3.21875 -0.859375q2.421875 0 3.875 1.359375q1.453125 1.34375 1.6875 3.71875l-2.0 0q-0.265625 -1.796875 -1.140625 -2.609375q-0.859375 -0.8125 -2.421875 -0.8125q-1.921875 0 -3.015625 1.421875q-1.078125 1.40625 -1.078125 4.015625l0 1.46875q0 2.46875 1.03125 3.9375q1.03125 1.453125 2.890625 1.453125q1.65625 0 2.546875 -0.75q0.890625 -0.765625 1.1875 -2.640625l2.0 0z"/><path id="path223" fill="#999" fill-rule="evenodd" d="m364.26294 377.5433l67.433044 0l0 31.937012l-67.433044 0z"/><path id="path225" fill-rule="evenodd" stroke="#434343" stroke-linecap="butt" stroke-linejoin="round" stroke-width="1" d="m364.26294 377.5433l67.433044 0l0 31.937012l-67.433044 0z"/><path id="path227" fill="#fff" fill-rule="nonzero" d="m377.62003 395.27307q0 -2.640625 1.171875 -4.1875q1.1875 -1.5625 3.25 -1.5625q1.640625 0 2.71875 1.21875l0 -5.75l3.015625 0l0 16.0l-2.71875 0l-0.140625 -1.203125q-1.125 1.40625 -2.90625 1.40625q-1.984375 0 -3.1875 -1.5625q-1.203125 -1.5625 -1.203125 -4.359375zm3.015625 0.21875q0 1.578125 0.546875 2.421875q0.546875 0.84375 1.609375 0.84375q1.390625 0 1.96875 -1.171875l0 -4.453125q-0.5625 -1.171875 -1.953125 -1.171875q-2.171875 0 -2.171875 3.53125zm16.002258 5.5q-0.203125 -0.40625 -0.296875 -1.015625q-1.09375 1.21875 -2.84375 1.21875q-1.65625 0 -2.75 -0.953125q-1.09375 -0.953125 -1.09375 -2.421875q0 -1.78125 1.328125 -2.734375q1.328125 -0.96875 3.84375 -0.984375l1.390625 0l0 -0.640625q0 -0.78125 -0.40625 -1.25q-0.40625 -0.46875 -1.265625 -0.46875q-0.765625 0 -1.203125 0.375q-0.421875 0.359375 -0.421875 0.984375l-3.015625 0q0 -0.96875 0.609375 -1.796875q0.609375 -0.84375 1.703125 -1.3125q1.109375 -0.46875 2.484375 -0.46875q2.078125 0 3.296875 1.046875q1.234375 1.03125 1.234375 2.9375l0 4.875q0.015625 1.609375 0.4375 2.4375l0 0.171875l-3.03125 0zm-2.484375 -2.09375q0.65625 0 1.21875 -0.296875q0.5625 -0.296875 0.84375 -0.796875l0 -1.9375l-1.125 0q-2.265625 0 -2.40625 1.5625l-0.015625 0.171875q0 0.5625 0.390625 0.9375q0.40625 0.359375 1.09375 0.359375zm10.997223 -11.9375l0 2.765625l1.921875 0l0 2.203125l-1.921875 0l0 5.625q0 0.625 0.234375 0.90625q0.234375 0.265625 0.921875 0.265625q0.5 0 0.875 -0.078125l0 2.28125q-0.875 0.265625 -1.8125 0.265625q-3.171875 0 -3.234375 -3.1875l0 -6.078125l-1.640625 0l0 -2.203125l1.640625 0l0 -2.765625l3.015625 0zm10.1284485 14.03125q-0.203125 -0.40625 -0.296875 -1.015625q-1.09375 1.21875 -2.84375 1.21875q-1.65625 0 -2.75 -0.953125q-1.09375 -0.953125 -1.09375 -2.421875q0 -1.78125 1.328125 -2.734375q1.328125 -0.96875 3.84375 -0.984375l1.390625 0l0 -0.640625q0 -0.78125 -0.40625 -1.25q-0.40625 -0.46875 -1.265625 -0.46875q-0.765625 0 -1.203125 0.375q-0.421875 0.359375 -0.421875 0.984375l-3.015625 0q0 -0.96875 0.609375 -1.796875q0.609375 -0.84375 1.703125 -1.3125q1.109375 -0.46875 2.484375 -0.46875q2.078125 0 3.296875 1.046875q1.234375 1.03125 1.234375 2.9375l0 4.875q0.015625 1.609375 0.4375 2.4375l0 0.171875l-3.03125 0zm-2.484375 -2.09375q0.65625 0 1.21875 -0.296875q0.5625 -0.296875 0.84375 -0.796875l0 -1.9375l-1.125 0q-2.265625 0 -2.40625 1.5625l-0.015625 0.171875q0 0.5625 0.390625 0.9375q0.40625 0.359375 1.09375 0.359375z"/><path id="path229" fill="#ead1dc" fill-rule="evenodd" d="m364.26294 413.92484l67.433044 0l0 31.937012l-67.433044 0z"/><path id="path231" fill-rule="evenodd" stroke="#fff" stroke-linecap="butt" stroke-linejoin="round" stroke-width="1" d="m364.26294 413.92484l67.433044 0l0 31.937012l-67.433044 0z"/><path id="path233" fill="#000" fill-rule="nonzero" d="m396.05383 428.85773l1.453125 0q1.359375 -0.03125 2.140625 -0.71875q0.78125 -0.703125 0.78125 -1.890625q0 -2.65625 -2.65625 -2.65625q-1.25 0 -2.0 0.71875q-0.734375 0.703125 -0.734375 1.875l-1.9375 0q0 -1.796875 1.3125 -2.984375q1.328125 -1.203125 3.359375 -1.203125q2.140625 0 3.359375 1.140625q1.21875 1.140625 1.21875 3.15625q0 0.984375 -0.640625 1.921875q-0.640625 0.921875 -1.734375 1.375q1.25 0.390625 1.921875 1.3125q0.6875 0.921875 0.6875 2.234375q0 2.046875 -1.34375 3.25q-1.328125 1.1875 -3.46875 1.1875q-2.125 0 -3.46875 -1.15625q-1.328125 -1.15625 -1.328125 -3.046875l1.9375 0q0 1.203125 0.78125 1.921875q0.78125 0.71875 2.09375 0.71875q1.390625 0 2.125 -0.734375q0.75 -0.734375 0.75 -2.09375q0 -1.328125 -0.8125 -2.03125q-0.8125 -0.703125 -2.34375 -0.734375l-1.453125 0l0 -1.5625z"/><path id="path235" fill="#ead1dc" fill-rule="evenodd" d="m364.26294 450.3051l67.433044 0l0 31.937012l-67.433044 0z"/><path id="path237" fill-rule="evenodd" stroke="#fff" stroke-linecap="butt" stroke-linejoin="round" stroke-width="1" d="m364.26294 450.3051l67.433044 0l0 31.937012l-67.433044 0z"/><path id="path239" fill="#000" fill-rule="nonzero" d="m400.81946 458.58173l0 1.640625l-0.359375 0q-2.25 0.03125 -3.59375 1.328125q-1.328125 1.296875 -1.53125 3.625q1.203125 -1.375 3.265625 -1.375q1.984375 0 3.15625 1.40625q1.1875 1.390625 1.1875 3.59375q0 2.34375 -1.28125 3.75q-1.265625 1.40625 -3.40625 1.40625q-2.1875 0 -3.546875 -1.671875q-1.34375 -1.671875 -1.34375 -4.296875l0 -0.75q0 -4.171875 1.78125 -6.390625q1.796875 -2.21875 5.328125 -2.265625l0.34375 0zm-2.53125 6.828125q-1.0 0 -1.828125 0.59375q-0.828125 0.59375 -1.15625 1.484375l0 0.71875q0 1.875 0.84375 3.015625q0.84375 1.140625 2.109375 1.140625q1.296875 0 2.03125 -0.953125q0.75 -0.953125 0.75 -2.515625q0 -1.5625 -0.75 -2.515625q-0.75 -0.96875 -2.0 -0.96875z"/><path id="path241" fill="#999" fill-rule="evenodd" d="m530.1457 230.16272l65.85828 0l0 31.181122l-65.85828 0z"/><path id="path243" fill-rule="evenodd" stroke="#434343" stroke-linecap="butt" stroke-linejoin="round" stroke-width="1" d="m530.1457 230.16272l65.85828 0l0 31.181122l-65.85828 0z"/><path id="path245" fill="#fff" fill-rule="nonzero" d="m551.6831 248.71765l-1.078125 1.078125l0 3.4375l-3.015625 0l0 -16.0l3.015625 0l0 8.859375l0.578125 -0.75l2.890625 -3.375l3.609375 0l-4.078125 4.6875l4.421875 6.578125l-3.453125 0l-2.890625 -4.515625zm12.278442 4.71875q-2.484375 0 -4.046875 -1.515625q-1.546875 -1.515625 -1.546875 -4.046875l0 -0.296875q0 -1.703125 0.65625 -3.03125q0.65625 -1.34375 1.859375 -2.0625q1.203125 -0.71875 2.75 -0.71875q2.3125 0 3.625 1.453125q1.328125 1.453125 1.328125 4.125l0 1.234375l-7.171875 0q0.15625 1.109375 0.890625 1.78125q0.734375 0.65625 1.859375 0.65625q1.734375 0 2.71875 -1.265625l1.46875 1.65625q-0.671875 0.96875 -1.828125 1.5q-1.15625 0.53125 -2.5625 0.53125zm-0.34375 -9.25q-0.890625 0 -1.453125 0.609375q-0.5625 0.609375 -0.71875 1.734375l4.1875 0l0 -0.25q-0.015625 -1.0 -0.546875 -1.546875q-0.515625 -0.546875 -1.46875 -0.546875zm10.75238 4.78125l2.09375 -7.0l3.21875 0l-4.53125 13.015625l-0.25 0.59375q-1.0 2.203125 -3.328125 2.203125q-0.65625 0 -1.328125 -0.1875l0 -2.28125l0.453125 0q0.859375 0 1.28125 -0.265625q0.421875 -0.25 0.65625 -0.859375l0.359375 -0.921875l-3.953125 -11.296875l3.234375 0l2.09375 7.0z"/><path id="path247" fill="#93c47d" fill-rule="evenodd" d="m530.1457 266.19824l65.85828 0l0 31.181091l-65.85828 0z"/><path id="path249" fill-rule="evenodd" stroke="#fff" stroke-linecap="butt" stroke-linejoin="round" stroke-width="1" d="m530.1457 266.19824l65.85828 0l0 31.181091l-65.85828 0z"/><path id="path251" fill="#000" fill-rule="nonzero" d="m558.2014 289.26877l0 -15.15625l4.953125 0q2.46875 0 3.703125 1.015625q1.25 1.015625 1.25 3.015625q0 1.0625 -0.609375 1.890625q-0.59375 0.8125 -1.640625 1.25q1.234375 0.34375 1.9375 1.3125q0.71875 0.96875 0.71875 2.296875q0 2.046875 -1.328125 3.21875q-1.3125 1.15625 -3.734375 1.15625l-5.25 0zm2.0 -7.09375l0 5.453125l3.296875 0q1.390625 0 2.203125 -0.71875q0.8125 -0.71875 0.8125 -2.0q0 -2.734375 -2.984375 -2.734375l-3.328125 0zm0 -1.609375l3.015625 0q1.3125 0 2.09375 -0.65625q0.796875 -0.65625 0.796875 -1.765625q0 -1.25 -0.734375 -1.8125q-0.734375 -0.578125 -2.21875 -0.578125l-2.953125 0l0 4.8125z"/><path id="path253" fill="#999" fill-rule="evenodd" d="m605.62946 230.16272l65.858215 0l0 31.181122l-65.858215 0z"/><path id="path255" fill-rule="evenodd" stroke="#434343" stroke-linecap="butt" stroke-linejoin="round" stroke-width="1" d="m605.62946 230.16272l65.858215 0l0 31.181122l-65.858215 0z"/><path id="path257" fill="#fff" fill-rule="nonzero" d="m618.1991 247.51453q0 -2.640625 1.171875 -4.1875q1.1875 -1.5625 3.25 -1.5625q1.640625 0 2.71875 1.21875l0 -5.75l3.015625 0l0 16.0l-2.71875 0l-0.140625 -1.203125q-1.125 1.40625 -2.90625 1.40625q-1.984375 0 -3.1875 -1.5625q-1.203125 -1.5625 -1.203125 -4.359375zm3.015625 0.21875q0 1.578125 0.546875 2.421875q0.546875 0.84375 1.609375 0.84375q1.390625 0 1.96875 -1.171875l0 -4.453125q-0.5625 -1.171875 -1.953125 -1.171875q-2.171875 0 -2.171875 3.53125zm16.00232 5.5q-0.203125 -0.40625 -0.296875 -1.015625q-1.09375 1.21875 -2.84375 1.21875q-1.65625 0 -2.75 -0.953125q-1.09375 -0.953125 -1.09375 -2.421875q0 -1.78125 1.328125 -2.734375q1.328125 -0.96875 3.84375 -0.984375l1.390625 0l0 -0.640625q0 -0.78125 -0.40625 -1.25q-0.40625 -0.46875 -1.265625 -0.46875q-0.765625 0 -1.203125 0.375q-0.421875 0.359375 -0.421875 0.984375l-3.015625 0q0 -0.96875 0.609375 -1.796875q0.609375 -0.84375 1.703125 -1.3125q1.109375 -0.46875 2.484375 -0.46875q2.078125 0 3.296875 1.046875q1.234375 1.03125 1.234375 2.9375l0 4.875q0.015625 1.609375 0.4375 2.4375l0 0.171875l-3.03125 0zm-2.484375 -2.09375q0.65625 0 1.21875 -0.296875q0.5625 -0.296875 0.84375 -0.796875l0 -1.9375l-1.125 0q-2.265625 0 -2.40625 1.5625l-0.015625 0.171875q0 0.5625 0.390625 0.9375q0.40625 0.359375 1.09375 0.359375zm10.997192 -11.9375l0 2.765625l1.921875 0l0 2.203125l-1.921875 0l0 5.625q0 0.625 0.234375 0.90625q0.234375 0.265625 0.921875 0.265625q0.5 0 0.875 -0.078125l0 2.28125q-0.875 0.265625 -1.8125 0.265625q-3.171875 0 -3.234375 -3.1875l0 -6.078125l-1.640625 0l0 -2.203125l1.640625 0l0 -2.765625l3.015625 0zm10.128418 14.03125q-0.203125 -0.40625 -0.296875 -1.015625q-1.09375 1.21875 -2.84375 1.21875q-1.65625 0 -2.75 -0.953125q-1.09375 -0.953125 -1.09375 -2.421875q0 -1.78125 1.328125 -2.734375q1.328125 -0.96875 3.84375 -0.984375l1.390625 0l0 -0.640625q0 -0.78125 -0.40625 -1.25q-0.40625 -0.46875 -1.265625 -0.46875q-0.765625 0 -1.203125 0.375q-0.421875 0.359375 -0.421875 0.984375l-3.015625 0q0 -0.96875 0.609375 -1.796875q0.609375 -0.84375 1.703125 -1.3125q1.109375 -0.46875 2.484375 -0.46875q2.078125 0 3.296875 1.046875q1.234375 1.03125 1.234375 2.9375l0 4.875q0.015625 1.609375 0.4375 2.4375l0 0.171875l-3.03125 0zm-2.484375 -2.09375q0.65625 0 1.21875 -0.296875q0.5625 -0.296875 0.84375 -0.796875l0 -1.9375l-1.125 0q-2.265625 0 -2.40625 1.5625l-0.015625 0.171875q0 0.5625 0.390625 0.9375q0.40625 0.359375 1.09375 0.359375z"/><path id="path259" fill="#93c47d" fill-rule="evenodd" d="m605.62946 265.68695l65.858215 0l0 31.181091l-65.858215 0z"/><path id="path261" fill-rule="evenodd" stroke="#fff" stroke-linecap="butt" stroke-linejoin="round" stroke-width="1" d="m605.62946 265.68695l65.858215 0l0 31.181091l-65.858215 0z"/><path id="path263" fill="#000" fill-rule="nonzero" d="m643.6173 274.67938l-6.28125 14.078125l-2.015625 0l6.265625 -13.578125l-8.21875 0l0 -1.578125l10.25 0l0 1.078125z"/><path id="path265" fill="#999" fill-rule="evenodd" d="m527.8189 395.69684l68.031494 0l0 32.22049l-68.031494 0z"/><path id="path267" fill-rule="evenodd" stroke="#434343" stroke-linecap="butt" stroke-linejoin="round" stroke-width="1" d="m527.8189 395.69684l68.031494 0l0 32.22049l-68.031494 0z"/><path id="path269" fill="#fff" fill-rule="nonzero" d="m550.44293 414.77145l-1.078125 1.078125l0 3.4375l-3.015625 0l0 -16.0l3.015625 0l0 8.859375l0.578125 -0.75l2.890625 -3.375l3.609375 0l-4.078125 4.6875l4.421875 6.578125l-3.453125 0l-2.890625 -4.515625zm12.278442 4.71875q-2.484375 0 -4.046875 -1.515625q-1.546875 -1.515625 -1.546875 -4.046875l0 -0.296875q0 -1.703125 0.65625 -3.03125q0.65625 -1.34375 1.859375 -2.0625q1.203125 -0.71875 2.75 -0.71875q2.3125 0 3.625 1.453125q1.328125 1.453125 1.328125 4.125l0 1.234375l-7.171875 0q0.15625 1.109375 0.890625 1.78125q0.734375 0.65625 1.859375 0.65625q1.734375 0 2.71875 -1.265625l1.46875 1.65625q-0.671875 0.96875 -1.828125 1.5q-1.15625 0.53125 -2.5625 0.53125zm-0.34375 -9.25q-0.890625 0 -1.453125 0.609375q-0.5625 0.609375 -0.71875 1.734375l4.1875 0l0 -0.25q-0.015625 -1.0 -0.546875 -1.546875q-0.515625 -0.546875 -1.46875 -0.546875zm10.752441 4.78125l2.09375 -7.0l3.21875 0l-4.53125 13.015625l-0.25 0.59375q-1.0 2.203125 -3.328125 2.203125q-0.65625 0 -1.328125 -0.1875l0 -2.28125l0.453125 0q0.859375 0 1.28125 -0.265625q0.421875 -0.25 0.65625 -0.859375l0.359375 -0.921875l-3.953125 -11.296875l3.234375 0l2.09375 7.0z"/><path id="path271" fill="#ead1dc" fill-rule="evenodd" d="m527.8189 432.91623l68.031494 0l0 32.22049l-68.031494 0z"/><path id="path273" fill-rule="evenodd" stroke="#fff" stroke-linecap="butt" stroke-linejoin="round" stroke-width="1" d="m527.8189 432.91623l68.031494 0l0 32.22049l-68.031494 0z"/><path id="path275" fill="#000" fill-rule="nonzero" d="m567.79987 451.69397q-0.28125 2.40625 -1.78125 3.71875q-1.484375 1.296875 -3.953125 1.296875q-2.6875 0 -4.3125 -1.921875q-1.625 -1.921875 -1.625 -5.15625l0 -1.453125q0 -2.125 0.75 -3.71875q0.765625 -1.609375 2.140625 -2.46875q1.390625 -0.859375 3.21875 -0.859375q2.421875 0 3.875 1.359375q1.453125 1.34375 1.6875 3.71875l-2.0 0q-0.265625 -1.796875 -1.140625 -2.609375q-0.859375 -0.8125 -2.421875 -0.8125q-1.921875 0 -3.015625 1.421875q-1.078125 1.40625 -1.078125 4.015625l0 1.46875q0 2.46875 1.03125 3.9375q1.03125 1.453125 2.890625 1.453125q1.65625 0 2.546875 -0.75q0.890625 -0.765625 1.1875 -2.640625l2.0 0z"/><path id="path277" fill="#999" fill-rule="evenodd" d="m605.78253 395.69684l68.031494 0l0 32.22049l-68.031494 0z"/><path id="path279" fill-rule="evenodd" stroke="#434343" stroke-linecap="butt" stroke-linejoin="round" stroke-width="1" d="m605.78253 395.69684l68.031494 0l0 32.22049l-68.031494 0z"/><path id="path281" fill="#fff" fill-rule="nonzero" d="m619.43884 413.56833q0 -2.640625 1.171875 -4.1875q1.1875 -1.5625 3.25 -1.5625q1.640625 0 2.71875 1.21875l0 -5.75l3.015625 0l0 16.0l-2.71875 0l-0.140625 -1.203125q-1.125 1.40625 -2.90625 1.40625q-1.984375 0 -3.1875 -1.5625q-1.203125 -1.5625 -1.203125 -4.359375zm3.015625 0.21875q0 1.578125 0.546875 2.421875q0.546875 0.84375 1.609375 0.84375q1.390625 0 1.96875 -1.171875l0 -4.453125q-0.5625 -1.171875 -1.953125 -1.171875q-2.171875 0 -2.171875 3.53125zm16.002258 5.5q-0.203125 -0.40625 -0.296875 -1.015625q-1.09375 1.21875 -2.84375 1.21875q-1.65625 0 -2.75 -0.953125q-1.09375 -0.953125 -1.09375 -2.421875q0 -1.78125 1.328125 -2.734375q1.328125 -0.96875 3.84375 -0.984375l1.390625 0l0 -0.640625q0 -0.78125 -0.40625 -1.25q-0.40625 -0.46875 -1.265625 -0.46875q-0.765625 0 -1.203125 0.375q-0.421875 0.359375 -0.421875 0.984375l-3.015625 0q0 -0.96875 0.609375 -1.796875q0.609375 -0.84375 1.703125 -1.3125q1.109375 -0.46875 2.484375 -0.46875q2.078125 0 3.296875 1.046875q1.234375 1.03125 1.234375 2.9375l0 4.875q0.015625 1.609375 0.4375 2.4375l0 0.171875l-3.03125 0zm-2.484375 -2.09375q0.65625 0 1.21875 -0.296875q0.5625 -0.296875 0.84375 -0.796875l0 -1.9375l-1.125 0q-2.265625 0 -2.40625 1.5625l-0.015625 0.171875q0 0.5625 0.390625 0.9375q0.40625 0.359375 1.09375 0.359375zm10.997253 -11.9375l0 2.765625l1.921875 0l0 2.203125l-1.921875 0l0 5.625q0 0.625 0.234375 0.90625q0.234375 0.265625 0.921875 0.265625q0.5 0 0.875 -0.078125l0 2.28125q-0.875 0.265625 -1.8125 0.265625q-3.171875 0 -3.234375 -3.1875l0 -6.078125l-1.640625 0l0 -2.203125l1.640625 0l0 -2.765625l3.015625 0zm10.128418 14.03125q-0.203125 -0.40625 -0.296875 -1.015625q-1.09375 1.21875 -2.84375 1.21875q-1.65625 0 -2.75 -0.953125q-1.09375 -0.953125 -1.09375 -2.421875q0 -1.78125 1.328125 -2.734375q1.328125 -0.96875 3.84375 -0.984375l1.390625 0l0 -0.640625q0 -0.78125 -0.40625 -1.25q-0.40625 -0.46875 -1.265625 -0.46875q-0.765625 0 -1.203125 0.375q-0.421875 0.359375 -0.421875 0.984375l-3.015625 0q0 -0.96875 0.609375 -1.796875q0.609375 -0.84375 1.703125 -1.3125q1.109375 -0.46875 2.484375 -0.46875q2.078125 0 3.296875 1.046875q1.234375 1.03125 1.234375 2.9375l0 4.875q0.015625 1.609375 0.4375 2.4375l0 0.171875l-3.03125 0zm-2.484375 -2.09375q0.65625 0 1.21875 -0.296875q0.5625 -0.296875 0.84375 -0.796875l0 -1.9375l-1.125 0q-2.265625 0 -2.40625 1.5625l-0.015625 0.171875q0 0.5625 0.390625 0.9375q0.40625 0.359375 1.09375 0.359375z"/><path id="path283" fill="#ead1dc" fill-rule="evenodd" d="m605.78253 432.38815l68.031494 0l0 32.22046l-68.031494 0z"/><path id="path285" fill-rule="evenodd" stroke="#fff" stroke-linecap="butt" stroke-linejoin="round" stroke-width="1" d="m605.78253 432.38815l68.031494 0l0 32.22046l-68.031494 0z"/><path id="path287" fill="#000" fill-rule="nonzero" d="m642.4508 449.30652q-0.59375 0.71875 -1.4375 1.15625q-0.84375 0.4375 -1.84375 0.4375q-1.3125 0 -2.28125 -0.640625q-0.96875 -0.640625 -1.5 -1.8125q-0.53125 -1.171875 -0.53125 -2.59375q0 -1.515625 0.578125 -2.734375q0.578125 -1.21875 1.640625 -1.859375q1.0625 -0.65625 2.46875 -0.65625q2.25 0 3.546875 1.6875q1.296875 1.6875 1.296875 4.578125l0 0.5625q0 4.4375 -1.75 6.46875q-1.75 2.03125 -5.28125 2.09375l-0.375 0l0 -1.625l0.40625 0q2.390625 -0.046875 3.671875 -1.25q1.28125 -1.203125 1.390625 -3.8125zm-2.96875 0q0.96875 0 1.78125 -0.59375q0.828125 -0.59375 1.203125 -1.46875l0 -0.765625q0 -1.890625 -0.828125 -3.078125q-0.8125 -1.1875 -2.078125 -1.1875q-1.265625 0 -2.046875 0.984375q-0.765625 0.96875 -0.765625 2.546875q0 1.5625 0.734375 2.5625q0.75 1.0 2.0 1.0z"/><path id="path289" fill="#999" fill-rule="evenodd" d="m765.1365 178.77542l78.96063 0l0 37.417328l-78.96063 0z"/><path id="path291" fill-rule="evenodd" stroke="#434343" stroke-linecap="butt" stroke-linejoin="round" stroke-width="1" d="m765.1365 178.77542l78.96063 0l0 37.417328l-78.96063 0z"/><path id="path293" fill="#fff" fill-rule="nonzero" d="m793.2251 200.44846l-1.078125 1.078125l0 3.4375l-3.015625 0l0 -16.0l3.015625 0l0 8.859375l0.578125 -0.75l2.890625 -3.375l3.609375 0l-4.078125 4.6875l4.421875 6.578125l-3.453125 0l-2.890625 -4.515625zm12.278442 4.71875q-2.484375 0 -4.046875 -1.515625q-1.546875 -1.515625 -1.546875 -4.046875l0 -0.296875q0 -1.703125 0.65625 -3.03125q0.65625 -1.34375 1.859375 -2.0625q1.203125 -0.71875 2.75 -0.71875q2.3125 0 3.625 1.453125q1.328125 1.453125 1.328125 4.125l0 1.234375l-7.171875 0q0.15625 1.109375 0.890625 1.78125q0.734375 0.65625 1.859375 0.65625q1.734375 0 2.71875 -1.265625l1.46875 1.65625q-0.671875 0.96875 -1.828125 1.5q-1.15625 0.53125 -2.5625 0.53125zm-0.34375 -9.25q-0.890625 0 -1.453125 0.609375q-0.5625 0.609375 -0.71875 1.734375l4.1875 0l0 -0.25q-0.015625 -1.0 -0.546875 -1.546875q-0.515625 -0.546875 -1.46875 -0.546875zm10.75238 4.78125l2.09375 -7.0l3.21875 0l-4.53125 13.015625l-0.25 0.59375q-1.0 2.203125 -3.328125 2.203125q-0.65625 0 -1.328125 -0.1875l0 -2.28125l0.453125 0q0.859375 0 1.28125 -0.265625q0.421875 -0.25 0.65625 -0.859375l0.359375 -0.921875l-3.953125 -11.296875l3.234375 0l2.09375 7.0z"/><path id="path295" fill="#ffe599" fill-rule="evenodd" d="m765.1365 221.37689l78.96063 0l0 37.417328l-78.96063 0z"/><path id="path297" fill-rule="evenodd" stroke="#fff" stroke-linecap="butt" stroke-linejoin="round" stroke-width="1" d="m765.1365 221.37689l78.96063 0l0 37.417328l-78.96063 0z"/><path id="path299" fill="#000" fill-rule="nonzero" d="m807.8008 243.61243l-6.359375 0l-1.421875 3.953125l-2.0625 0l5.78125 -15.15625l1.75 0l5.796875 15.15625l-2.046875 0l-1.4375 -3.953125zm-5.75 -1.65625l5.15625 0l-2.59375 -7.078125l-2.5625 7.078125z"/><path id="path301" fill="#93c47d" fill-rule="evenodd" d="m765.1365 263.97836l78.96063 0l0 37.417297l-78.96063 0z"/><path id="path303" fill-rule="evenodd" stroke="#fff" stroke-linecap="butt" stroke-linejoin="round" stroke-width="1" d="m765.1365 263.97836l78.96063 0l0 37.417297l-78.96063 0z"/><path id="path305" fill="#000" fill-rule="nonzero" d="m799.7434 290.16702l0 -15.15625l4.953125 0q2.46875 0 3.703125 1.015625q1.25 1.015625 1.25 3.015625q0 1.0625 -0.609375 1.890625q-0.59375 0.8125 -1.640625 1.25q1.234375 0.34375 1.9375 1.3125q0.71875 0.96875 0.71875 2.296875q0 2.046875 -1.328125 3.21875q-1.3125 1.15625 -3.734375 1.15625l-5.25 0zm2.0 -7.09375l0 5.453125l3.296875 0q1.390625 0 2.203125 -0.71875q0.8125 -0.71875 0.8125 -2.0q0 -2.734375 -2.984375 -2.734375l-3.328125 0zm0 -1.609375l3.015625 0q1.3125 0 2.09375 -0.65625q0.796875 -0.65625 0.796875 -1.765625q0 -1.25 -0.734375 -1.8125q-0.734375 -0.578125 -2.21875 -0.578125l-2.953125 0l0 4.8125z"/><path id="path307" fill="#ead1dc" fill-rule="evenodd" d="m765.1365 306.5798l78.96063 0l0 37.417328l-78.96063 0z"/><path id="path309" fill-rule="evenodd" stroke="#fff" stroke-linecap="butt" stroke-linejoin="round" stroke-width="1" d="m765.1365 306.5798l78.96063 0l0 37.417328l-78.96063 0z"/><path id="path311" fill="#000" fill-rule="nonzero" d="m810.58203 327.95596q-0.28125 2.40625 -1.78125 3.71875q-1.484375 1.296875 -3.953125 1.296875q-2.6875 0 -4.3125 -1.921875q-1.625 -1.921875 -1.625 -5.15625l0 -1.453125q0 -2.125 0.75 -3.71875q0.765625 -1.609375 2.140625 -2.46875q1.390625 -0.859375 3.21875 -0.859375q2.421875 0 3.875 1.359375q1.453125 1.34375 1.6875 3.71875l-2.0 0q-0.265625 -1.796875 -1.140625 -2.609375q-0.859375 -0.8125 -2.421875 -0.8125q-1.921875 0 -3.015625 1.421875q-1.078125 1.40625 -1.078125 4.015625l0 1.46875q0 2.46875 1.03125 3.9375q1.03125 1.453125 2.890625 1.453125q1.65625 0 2.546875 -0.75q0.890625 -0.765625 1.1875 -2.640625l2.0 0z"/><path id="path313" fill="#999" fill-rule="evenodd" d="m855.6594 178.77542l78.96063 0l0 37.417328l-78.96063 0z"/><path id="path315" fill-rule="evenodd" stroke="#434343" stroke-linecap="butt" stroke-linejoin="round" stroke-width="1" d="m855.6594 178.77542l78.96063 0l0 37.417328l-78.96063 0z"/><path id="path317" fill="#fff" fill-rule="nonzero" d="m874.7803 199.24533q0 -2.640625 1.171875 -4.1875q1.1875 -1.5625 3.25 -1.5625q1.640625 0 2.71875 1.21875l0 -5.75l3.015625 0l0 16.0l-2.71875 0l-0.140625 -1.203125q-1.125 1.40625 -2.90625 1.40625q-1.984375 0 -3.1875 -1.5625q-1.203125 -1.5625 -1.203125 -4.359375zm3.015625 0.21875q0 1.578125 0.546875 2.421875q0.546875 0.84375 1.609375 0.84375q1.390625 0 1.96875 -1.171875l0 -4.453125q-0.5625 -1.171875 -1.953125 -1.171875q-2.171875 0 -2.171875 3.53125zm16.00232 5.5q-0.203125 -0.40625 -0.296875 -1.015625q-1.09375 1.21875 -2.84375 1.21875q-1.65625 0 -2.75 -0.953125q-1.09375 -0.953125 -1.09375 -2.421875q0 -1.78125 1.328125 -2.734375q1.328125 -0.96875 3.84375 -0.984375l1.390625 0l0 -0.640625q0 -0.78125 -0.40625 -1.25q-0.40625 -0.46875 -1.265625 -0.46875q-0.765625 0 -1.203125 0.375q-0.421875 0.359375 -0.421875 0.984375l-3.015625 0q0 -0.96875 0.609375 -1.796875q0.609375 -0.84375 1.703125 -1.3125q1.109375 -0.46875 2.484375 -0.46875q2.078125 0 3.296875 1.046875q1.234375 1.03125 1.234375 2.9375l0 4.875q0.015625 1.609375 0.4375 2.4375l0 0.171875l-3.03125 0zm-2.484375 -2.09375q0.65625 0 1.21875 -0.296875q0.5625 -0.296875 0.84375 -0.796875l0 -1.9375l-1.125 0q-2.265625 0 -2.40625 1.5625l-0.015625 0.171875q0 0.5625 0.390625 0.9375q0.40625 0.359375 1.09375 0.359375zm10.997192 -11.9375l0 2.765625l1.921875 0l0 2.203125l-1.921875 0l0 5.625q0 0.625 0.234375 0.90625q0.234375 0.265625 0.921875 0.265625q0.5 0 0.875 -0.078125l0 2.28125q-0.875 0.265625 -1.8125 0.265625q-3.171875 0 -3.234375 -3.1875l0 -6.078125l-1.640625 0l0 -2.203125l1.640625 0l0 -2.765625l3.015625 0zm10.128418 14.03125q-0.203125 -0.40625 -0.296875 -1.015625q-1.09375 1.21875 -2.84375 1.21875q-1.65625 0 -2.75 -0.953125q-1.09375 -0.953125 -1.09375 -2.421875q0 -1.78125 1.328125 -2.734375q1.328125 -0.96875 3.84375 -0.984375l1.390625 0l0 -0.640625q0 -0.78125 -0.40625 -1.25q-0.40625 -0.46875 -1.265625 -0.46875q-0.765625 0 -1.203125 0.375q-0.421875 0.359375 -0.421875 0.984375l-3.015625 0q0 -0.96875 0.609375 -1.796875q0.609375 -0.84375 1.703125 -1.3125q1.109375 -0.46875 2.484375 -0.46875q2.078125 0 3.296875 1.046875q1.234375 1.03125 1.234375 2.9375l0 4.875q0.015625 1.609375 0.4375 2.4375l0 0.171875l-3.03125 0zm-2.484375 -2.09375q0.65625 0 1.21875 -0.296875q0.5625 -0.296875 0.84375 -0.796875l0 -1.9375l-1.125 0q-2.265625 0 -2.40625 1.5625l-0.015625 0.171875q0 0.5625 0.390625 0.9375q0.40625 0.359375 1.09375 0.359375z"/><path id="path319" fill="#ffe599" fill-rule="evenodd" d="m855.6594 221.37689l78.96063 0l0 37.417328l-78.96063 0z"/><path id="path321" fill-rule="evenodd" stroke="#fff" stroke-linecap="butt" stroke-linejoin="round" stroke-width="1" d="m855.6594 221.37689l78.96063 0l0 37.417328l-78.96063 0z"/><path id="path323" fill="#000" fill-rule="nonzero" d="m891.29224 239.95618l0.78125 -7.546875l7.765625 0l0 1.78125l-6.140625 0l-0.453125 4.125q1.109375 -0.65625 2.53125 -0.65625q2.078125 0 3.28125 1.375q1.21875 1.359375 1.21875 3.703125q0 2.34375 -1.265625 3.6875q-1.25 1.34375 -3.53125 1.34375q-2.0 0 -3.28125 -1.109375q-1.265625 -1.109375 -1.4375 -3.078125l1.8125 0q0.1875 1.296875 0.9375 1.96875q0.75 0.65625 1.96875 0.65625q1.34375 0 2.109375 -0.921875q0.765625 -0.921875 0.765625 -2.53125q0 -1.515625 -0.828125 -2.4375q-0.828125 -0.921875 -2.203125 -0.921875q-1.25 0 -1.96875 0.546875l-0.515625 0.421875l-1.546875 -0.40625z"/><path id="path325" fill="#93c47d" fill-rule="evenodd" d="m855.6594 263.97687l78.96063 0l0 37.417328l-78.96063 0z"/><path id="path327" fill-rule="evenodd" stroke="#fff" stroke-linecap="butt" stroke-linejoin="round" stroke-width="1" d="m855.6594 263.97687l78.96063 0l0 37.417328l-78.96063 0z"/><path id="path329" fill="#000" fill-rule="nonzero" d="m900.1985 276.0874l-6.28125 14.078125l-2.015625 0l6.265625 -13.578125l-8.21875 0l0 -1.578125l10.25 0l0 1.078125z"/><path id="path331" fill="#ead1dc" fill-rule="evenodd" d="m855.6594 306.577l78.96063 0l0 37.417297l-78.96063 0z"/><path id="path333" fill-rule="evenodd" stroke="#fff" stroke-linecap="butt" stroke-linejoin="round" stroke-width="1" d="m855.6594 306.577l78.96063 0l0 37.417297l-78.96063 0z"/><path id="path335" fill="#000" fill-rule="nonzero" d="m897.79224 326.09378q-0.59375 0.71875 -1.4375 1.15625q-0.84375 0.4375 -1.84375 0.4375q-1.3125 0 -2.28125 -0.640625q-0.96875 -0.640625 -1.5 -1.8125q-0.53125 -1.171875 -0.53125 -2.59375q0 -1.515625 0.578125 -2.734375q0.578125 -1.21875 1.640625 -1.859375q1.0625 -0.65625 2.46875 -0.65625q2.25 0 3.546875 1.6875q1.296875 1.6875 1.296875 4.578125l0 0.5625q0 4.4375 -1.75 6.46875q-1.75 2.03125 -5.28125 2.09375l-0.375 0l0 -1.625l0.40625 0q2.390625 -0.046875 3.671875 -1.25q1.28125 -1.203125 1.390625 -3.8125zm-2.96875 0q0.96875 0 1.78125 -0.59375q0.828125 -0.59375 1.203125 -1.46875l0 -0.765625q0 -1.890625 -0.828125 -3.078125q-0.8125 -1.1875 -2.078125 -1.1875q-1.265625 0 -2.046875 0.984375q-0.765625 0.96875 -0.765625 2.546875q0 1.5625 0.734375 2.5625q0.75 1.0 2.0 1.0z"/><path id="path337" fill="#000" fill-opacity="0" fill-rule="evenodd" d="m218.94751 176.84251l47.370087 -46.330704"/><path id="path339" fill-rule="evenodd" stroke="#595959" stroke-linecap="butt" stroke-linejoin="round" stroke-width="2" d="m218.94751 176.84251l38.7912 -37.940063"/><path id="path341" fill="#595959" fill-rule="evenodd" stroke="#595959" stroke-linecap="butt" stroke-width="2" d="m260.04855 141.26411l4.178772 -8.707916l-8.798462 3.9845886z"/><path id="path343" fill="#000" fill-opacity="0" fill-rule="evenodd" d="m218.9462 281.27823l54.740143 0"/><path id="path345" fill-rule="evenodd" stroke="#595959" stroke-linecap="butt" stroke-linejoin="round" stroke-width="2" d="m218.9462 281.27823l42.740143 0"/><path id="path347" fill="#595959" fill-rule="evenodd" stroke="#595959" stroke-linecap="butt" stroke-width="2" d="m261.68634 284.58167l9.076202 -3.3034363l-9.076202 -3.3034668z"/><path id="path349" fill="#000" fill-opacity="0" fill-rule="evenodd" d="m216.88715 385.7139l46.33069 47.370087"/><path id="path351" fill-rule="evenodd" stroke="#595959" stroke-linecap="butt" stroke-linejoin="round" stroke-width="2" d="m216.88715 385.7139l37.940063 38.79123"/><path id="path353" fill="#595959" fill-rule="evenodd" stroke="#595959" stroke-linecap="butt" stroke-width="2" d="m252.46553 426.81497l8.7079315 4.178772l-3.9845886 -8.798492z"/><path id="path355" fill="#000" fill-opacity="0" fill-rule="evenodd" d="m453.95276 269.99738l54.740143 0"/><path id="path357" fill-rule="evenodd" stroke="#595959" stroke-linecap="butt" stroke-linejoin="round" stroke-width="2" d="m453.95276 269.99738l42.740143 0"/><path id="path359" fill="#595959" fill-rule="evenodd" stroke="#595959" stroke-linecap="butt" stroke-width="2" d="m496.6929 273.30084l9.076202 -3.3034668l-9.076202 -3.3034668z"/><path id="path361" fill="#000" fill-opacity="0" fill-rule="evenodd" d="m453.95276 120.097115l54.740143 0"/><path id="path363" fill-rule="evenodd" stroke="#595959" stroke-linecap="butt" stroke-linejoin="round" stroke-width="2" d="m453.95276 120.097115l42.740143 0"/><path id="path365" fill="#595959" fill-rule="evenodd" stroke="#595959" stroke-linecap="butt" stroke-width="2" d="m496.6929 123.40058l9.076202 -3.3034668l-9.076202 -3.3034668z"/><path id="path367" fill="#000" fill-opacity="0" fill-rule="evenodd" d="m458.3727 448.4987l54.740143 0"/><path id="path369" fill-rule="evenodd" stroke="#595959" stroke-linecap="butt" stroke-linejoin="round" stroke-width="2" d="m458.3727 448.4987l42.740143 0"/><path id="path371" fill="#595959" fill-rule="evenodd" stroke="#595959" stroke-linecap="butt" stroke-width="2" d="m501.11285 451.80215l9.076202 -3.3034668l-9.076202 -3.3034668z"/><path id="path373" fill="#000" fill-opacity="0" fill-rule="evenodd" d="m701.4173 125.58268l46.33075 47.37008"/><path id="path375" fill-rule="evenodd" stroke="#595959" stroke-linecap="butt" stroke-linejoin="round" stroke-width="2" d="m701.4173 125.58268l37.940063 38.791206"/><path id="path377" fill="#595959" fill-rule="evenodd" stroke="#595959" stroke-linecap="butt" stroke-width="2" d="m736.9957 166.68373l8.707947 4.178772l-3.9846191 -8.798477z"/><path id="path379" fill="#000" fill-opacity="0" fill-rule="evenodd" d="m701.4173 409.48032l47.370117 -46.33072"/><path id="path381" fill-rule="evenodd" stroke="#595959" stroke-linecap="butt" stroke-linejoin="round" stroke-width="2" d="m701.4173 409.48032l38.7912 -37.940094"/><path id="path383" fill="#595959" fill-rule="evenodd" stroke="#595959" stroke-linecap="butt" stroke-width="2" d="m742.5184 373.90192l4.178772 -8.707916l-8.798462 3.9845886z"/><path id="path385" fill="#000" fill-opacity="0" fill-rule="evenodd" d="m698.83466 269.99738l54.740173 0"/><path id="path387" fill-rule="evenodd" stroke="#595959" stroke-linecap="butt" stroke-linejoin="round" stroke-width="2" d="m698.83466 269.99738l42.740173 0"/><path id="path389" fill="#595959" fill-rule="evenodd" stroke="#595959" stroke-linecap="butt" stroke-width="2" d="m741.5748 273.30084l9.076172 -3.3034668l-9.076172 -3.3034668z"/></g></svg>